<svg xmlns="http://www.w3.org/2000/svg" xmlns:xlink="http://www.w3.org/1999/xlink" contentStyleType="text/css" height="299px" preserveAspectRatio="none" style="width:490px;height:299px;background:#FFFFFF;" version="1.1" viewBox="0 0 490 299" width="490px" zoomAndPan="magnify"><defs/><g><rect fill="#FFFFFF" height="109.2422" style="stroke:#181818;stroke-width:1.0;" width="10" x="25.1382" y="91.4883"/><rect fill="#FFFFFF" height="87.9316" style="stroke:#181818;stroke-width:1.0;" width="10" x="235.1406" y="112.7988"/><rect fill="#FFFFFF" height="29.3105" style="stroke:#181818;stroke-width:1.0;" width="10" x="444.6987" y="142.1094"/><line style="stroke:#181818;stroke-width:0.5;stroke-dasharray:5.0,5.0;" x1="30" x2="30" y1="81.4883" y2="218.7305"/><line style="stroke:#181818;stroke-width:0.5;stroke-dasharray:5.0,5.0;" x1="239.7173" x2="239.7173" y1="81.4883" y2="218.7305"/><line style="stroke:#181818;stroke-width:0.5;stroke-dasharray:5.0,5.0;" x1="449.5859" x2="449.5859" y1="81.4883" y2="218.7305"/><text fill="#000000" font-family="sans-serif" font-size="14" lengthAdjust="spacing" textLength="44.2764" x="5" y="78.5352">Admin</text><ellipse cx="30.1382" cy="13.5" fill="#E2E2F0" rx="8" ry="8" style="stroke:#181818;stroke-width:0.5;"/><path d="M30.1382,21.5 L30.1382,48.5 M17.1382,29.5 L43.1382,29.5 M30.1382,48.5 L17.1382,63.5 M30.1382,48.5 L43.1382,63.5 " fill="none" style="stroke:#181818;stroke-width:0.5;"/><text fill="#000000" font-family="sans-serif" font-size="14" lengthAdjust="spacing" textLength="44.2764" x="5" y="231.2656">Admin</text><ellipse cx="30.1382" cy="242.7188" fill="#E2E2F0" rx="8" ry="8" style="stroke:#181818;stroke-width:0.5;"/><path d="M30.1382,250.7188 L30.1382,277.7188 M17.1382,258.7188 L43.1382,258.7188 M30.1382,277.7188 L17.1382,292.7188 M30.1382,277.7188 L43.1382,292.7188 " fill="none" style="stroke:#181818;stroke-width:0.5;"/><rect fill="#E2E2F0" height="30.4883" rx="2.5" ry="2.5" style="stroke:#181818;stroke-width:0.5;" width="74.8467" x="202.7173" y="50"/><text fill="#000000" font-family="sans-serif" font-size="14" lengthAdjust="spacing" textLength="60.8467" x="209.7173" y="70.5352">FrontEnd</text><rect fill="#E2E2F0" height="30.4883" rx="2.5" ry="2.5" style="stroke:#181818;stroke-width:0.5;" width="74.8467" x="202.7173" y="217.7305"/><text fill="#000000" font-family="sans-serif" font-size="14" lengthAdjust="spacing" textLength="60.8467" x="209.7173" y="238.2656">FrontEnd</text><rect fill="#E2E2F0" height="30.4883" rx="2.5" ry="2.5" style="stroke:#181818;stroke-width:0.5;" width="70.2256" x="414.5859" y="50"/><text fill="#000000" font-family="sans-serif" font-size="14" lengthAdjust="spacing" textLength="56.2256" x="421.5859" y="70.5352">BackEnd</text><rect fill="#E2E2F0" height="30.4883" rx="2.5" ry="2.5" style="stroke:#181818;stroke-width:0.5;" width="70.2256" x="414.5859" y="217.7305"/><text fill="#000000" font-family="sans-serif" font-size="14" lengthAdjust="spacing" textLength="56.2256" x="421.5859" y="238.2656">BackEnd</text><rect fill="#FFFFFF" height="109.2422" style="stroke:#181818;stroke-width:1.0;" width="10" x="25.1382" y="91.4883"/><rect fill="#FFFFFF" height="87.9316" style="stroke:#181818;stroke-width:1.0;" width="10" x="235.1406" y="112.7988"/><rect fill="#FFFFFF" height="29.3105" style="stroke:#181818;stroke-width:1.0;" width="10" x="444.6987" y="142.1094"/><polygon fill="#181818" points="223.1406,108.7988,233.1406,112.7988,223.1406,116.7988,227.1406,112.7988" style="stroke:#181818;stroke-width:1.0;"/><line style="stroke:#181818;stroke-width:1.0;" x1="35.1382" x2="229.1406" y1="112.7988" y2="112.7988"/><text fill="#000000" font-family="sans-serif" font-size="13" font-weight="bold" lengthAdjust="spacing" textLength="8.5757" x="42.1382" y="108.0566">1</text><text fill="#000000" font-family="sans-serif" font-size="13" lengthAdjust="spacing" textLength="160.9385" x="54.7139" y="108.0566">wants to list staff profiles</text><polygon fill="#181818" points="432.6987,138.1094,442.6987,142.1094,432.6987,146.1094,436.6987,142.1094" style="stroke:#181818;stroke-width:1.0;"/><line style="stroke:#181818;stroke-width:1.0;" x1="245.1406" x2="438.6987" y1="142.1094" y2="142.1094"/><text fill="#000000" font-family="sans-serif" font-size="13" font-weight="bold" lengthAdjust="spacing" textLength="8.5757" x="252.1406" y="137.3672">2</text><text fill="#000000" font-family="sans-serif" font-size="13" lengthAdjust="spacing" textLength="114.5879" x="264.7163" y="137.3672">GET / staffProfiles</text><polygon fill="#181818" points="256.1406,167.4199,246.1406,171.4199,256.1406,175.4199,252.1406,171.4199" style="stroke:#181818;stroke-width:1.0;"/><line style="stroke:#181818;stroke-width:1.0;stroke-dasharray:2.0,2.0;" x1="250.1406" x2="448.6987" y1="171.4199" y2="171.4199"/><text fill="#000000" font-family="sans-serif" font-size="13" font-weight="bold" lengthAdjust="spacing" textLength="8.5757" x="262.1406" y="166.6777">3</text><text fill="#000000" font-family="sans-serif" font-size="13" lengthAdjust="spacing" textLength="162.9824" x="274.7163" y="166.6777">return list of staff profiles</text><polygon fill="#181818" points="41.1382,196.7305,31.1382,200.7305,41.1382,204.7305,37.1382,200.7305" style="stroke:#181818;stroke-width:1.0;"/><line style="stroke:#181818;stroke-width:1.0;stroke-dasharray:2.0,2.0;" x1="35.1382" x2="239.1406" y1="200.7305" y2="200.7305"/><text fill="#000000" font-family="sans-serif" font-size="13" font-weight="bold" lengthAdjust="spacing" textLength="8.5757" x="47.1382" y="195.9883">4</text><text fill="#000000" font-family="sans-serif" font-size="13" lengthAdjust="spacing" textLength="163.4268" x="59.7139" y="195.9883">shows list of staff profiles</text><!--SRC=[ZP1D3eCW44Rtd6BYtdJleab9iDkcFmUOAgQa2WR6UlsEe8rjN9G50MRU-pBWGCuEtLrx8R0Yvo4xr9sn6M20sqMTXUZHawbCZvOWAxspf6mTwwNwBagidajDgYWqBoGzYu3NT89ypoWKC38LW1oq9X04mgQ1thl6j3h4xe-0awPxt1XbWPm4HtM5NG9FcvnSSKpaIxBND7YRSbtp4vtQQxrfAPCbpb50UBWn_AlX8MQFMBt6lta3]--></g></svg>