<svg xmlns="http://www.w3.org/2000/svg" xmlns:xlink="http://www.w3.org/1999/xlink" contentStyleType="text/css" height="794px" preserveAspectRatio="none" style="width:1723px;height:794px;background:#FFFFFF;" version="1.1" viewBox="0 0 1723 794" width="1723px" zoomAndPan="magnify"><title>UC28 - List operation requests</title><defs/><g><text fill="#000000" font-family="sans-serif" font-size="14" font-weight="bold" lengthAdjust="spacing" textLength="203.041" x="761.9316" y="30.1074">UC28 - List operation requests</text><rect fill="#FFFFFF" height="584.5293" style="stroke:#181818;stroke-width:1.0;" width="10" x="50.793" y="119.2422"/><rect fill="#FFFFFF" height="394.7832" style="stroke:#181818;stroke-width:1.0;" width="10" x="271.6182" y="142.5332"/><rect fill="#FFFFFF" height="93.873" style="stroke:#181818;stroke-width:1.0;" width="10" x="271.6182" y="594.8984"/><rect fill="#FFFFFF" height="332.2012" style="stroke:#181818;stroke-width:1.0;" width="10" x="519.9243" y="173.8242"/><rect fill="#FFFFFF" height="31.291" style="stroke:#181818;stroke-width:1.0;" width="10" x="519.9243" y="626.1895"/><rect fill="#FFFFFF" height="144.4551" style="stroke:#181818;stroke-width:1.0;" width="10" x="764.6377" y="330.2793"/><rect fill="#FFFFFF" height="31.291" style="stroke:#181818;stroke-width:1.0;" width="10" x="1232.6489" y="405.1523"/><rect fill="#FFFFFF" height="93.873" style="stroke:#181818;stroke-width:1.0;" width="10" x="1418.5103" y="205.1152"/><rect fill="#FFFFFF" height="31.291" style="stroke:#181818;stroke-width:1.0;" width="10" x="1668.9873" y="236.4063"/><rect fill="none" height="99.1641" style="stroke:#000000;stroke-width:1.5;" width="654.1484" x="672.0898" y="345.2793"/><rect fill="none" height="144.4551" style="stroke:#000000;stroke-width:1.5;" width="612.0791" x="10" y="552.3164"/><line style="stroke:#181818;stroke-width:0.5;stroke-dasharray:5.0,5.0;" x1="55" x2="55" y1="109.2422" y2="713.7715"/><line style="stroke:#181818;stroke-width:0.5;stroke-dasharray:5.0,5.0;" x1="276.46" x2="276.46" y1="109.2422" y2="713.7715"/><line style="stroke:#181818;stroke-width:0.5;stroke-dasharray:5.0,5.0;" x1="524.7695" x2="524.7695" y1="109.2422" y2="713.7715"/><line style="stroke:#181818;stroke-width:0.5;stroke-dasharray:5.0,5.0;" x1="769.0898" x2="769.0898" y1="109.2422" y2="713.7715"/><line style="stroke:#181818;stroke-width:0.5;stroke-dasharray:5.0,5.0;" x1="1237.0596" x2="1237.0596" y1="109.2422" y2="713.7715"/><line style="stroke:#181818;stroke-width:0.5;stroke-dasharray:5.0,5.0;" x1="1423.2383" x2="1423.2383" y1="109.2422" y2="713.7715"/><line style="stroke:#181818;stroke-width:0.5;stroke-dasharray:5.0,5.0;" x1="1673.0703" x2="1673.0703" y1="109.2422" y2="713.7715"/><rect fill="#E2E2F0" height="32.6211" rx="2.5" ry="2.5" style="stroke:#181818;stroke-width:0.5;" width="71.5859" x="20" y="75.6211"/><text fill="#000000" font-family="sans-serif" font-size="14" lengthAdjust="spacing" textLength="57.5859" x="27" y="97.7285">FrontEnd</text><rect fill="#E2E2F0" height="32.6211" rx="2.5" ry="2.5" style="stroke:#181818;stroke-width:0.5;" width="71.5859" x="20" y="712.7715"/><text fill="#000000" font-family="sans-serif" font-size="14" lengthAdjust="spacing" textLength="57.5859" x="27" y="734.8789">FrontEnd</text><rect fill="#E2E2F0" height="51.2422" rx="2.5" ry="2.5" style="stroke:#181818;stroke-width:0.5;" width="188.3164" x="182.46" y="57"/><text fill="#000000" font-family="sans-serif" font-size="14" lengthAdjust="spacing" textLength="76.2617" x="238.4873" y="79.1074">&#171;Controller&#187;</text><text fill="#000000" font-family="sans-serif" font-size="14" lengthAdjust="spacing" textLength="174.3164" x="189.46" y="97.7285">OperationRequestController</text><rect fill="#E2E2F0" height="51.2422" rx="2.5" ry="2.5" style="stroke:#181818;stroke-width:0.5;" width="188.3164" x="182.46" y="712.7715"/><text fill="#000000" font-family="sans-serif" font-size="14" lengthAdjust="spacing" textLength="76.2617" x="238.4873" y="734.8789">&#171;Controller&#187;</text><text fill="#000000" font-family="sans-serif" font-size="14" lengthAdjust="spacing" textLength="174.3164" x="189.46" y="753.5">OperationRequestController</text><rect fill="#E2E2F0" height="51.2422" rx="2.5" ry="2.5" style="stroke:#181818;stroke-width:0.5;" width="174.3096" x="437.7695" y="57"/><text fill="#000000" font-family="sans-serif" font-size="14" lengthAdjust="spacing" textLength="84.0615" x="482.8936" y="79.1074">&#171;Application&#187;</text><text fill="#000000" font-family="sans-serif" font-size="14" lengthAdjust="spacing" textLength="160.3096" x="444.7695" y="97.7285">OperationRequestService</text><rect fill="#E2E2F0" height="51.2422" rx="2.5" ry="2.5" style="stroke:#181818;stroke-width:0.5;" width="174.3096" x="437.7695" y="712.7715"/><text fill="#000000" font-family="sans-serif" font-size="14" lengthAdjust="spacing" textLength="84.0615" x="482.8936" y="734.8789">&#171;Application&#187;</text><text fill="#000000" font-family="sans-serif" font-size="14" lengthAdjust="spacing" textLength="160.3096" x="444.7695" y="753.5">OperationRequestService</text><rect fill="#E2E2F0" height="51.2422" rx="2.5" ry="2.5" style="stroke:#181818;stroke-width:0.5;" width="175.0957" x="682.0898" y="57"/><text fill="#000000" font-family="sans-serif" font-size="14" lengthAdjust="spacing" textLength="70.041" x="734.6172" y="79.1074">&#171;Mappers&#187;</text><text fill="#000000" font-family="sans-serif" font-size="14" lengthAdjust="spacing" textLength="161.0957" x="689.0898" y="97.7285">OperationRequestMapper</text><rect fill="#E2E2F0" height="51.2422" rx="2.5" ry="2.5" style="stroke:#181818;stroke-width:0.5;" width="175.0957" x="682.0898" y="712.7715"/><text fill="#000000" font-family="sans-serif" font-size="14" lengthAdjust="spacing" textLength="70.041" x="734.6172" y="734.8789">&#171;Mappers&#187;</text><text fill="#000000" font-family="sans-serif" font-size="14" lengthAdjust="spacing" textLength="161.0957" x="689.0898" y="753.5">OperationRequestMapper</text><rect fill="#E2E2F0" height="51.2422" rx="2.5" ry="2.5" style="stroke:#181818;stroke-width:0.5;" width="157.1787" x="1159.0596" y="57"/><text fill="#000000" font-family="sans-serif" font-size="14" lengthAdjust="spacing" textLength="45.124" x="1215.0869" y="79.1074">&#171;DTO&#187;</text><text fill="#000000" font-family="sans-serif" font-size="14" lengthAdjust="spacing" textLength="143.1787" x="1166.0596" y="97.7285">OperationRequestDTO</text><rect fill="#E2E2F0" height="51.2422" rx="2.5" ry="2.5" style="stroke:#181818;stroke-width:0.5;" width="157.1787" x="1159.0596" y="712.7715"/><text fill="#000000" font-family="sans-serif" font-size="14" lengthAdjust="spacing" textLength="45.124" x="1215.0869" y="734.8789">&#171;DTO&#187;</text><text fill="#000000" font-family="sans-serif" font-size="14" lengthAdjust="spacing" textLength="143.1787" x="1166.0596" y="753.5">OperationRequestDTO</text><rect fill="#E2E2F0" height="51.2422" rx="2.5" ry="2.5" style="stroke:#181818;stroke-width:0.5;" width="194.5439" x="1326.2383" y="57"/><text fill="#000000" font-family="sans-serif" font-size="14" lengthAdjust="spacing" textLength="93.3857" x="1376.8174" y="79.1074">&#171;Repositories&#187;</text><text fill="#000000" font-family="sans-serif" font-size="14" lengthAdjust="spacing" textLength="180.5439" x="1333.2383" y="97.7285">OperationRequestRepository</text><rect fill="#E2E2F0" height="51.2422" rx="2.5" ry="2.5" style="stroke:#181818;stroke-width:0.5;" width="194.5439" x="1326.2383" y="712.7715"/><text fill="#000000" font-family="sans-serif" font-size="14" lengthAdjust="spacing" textLength="93.3857" x="1376.8174" y="734.8789">&#171;Repositories&#187;</text><text fill="#000000" font-family="sans-serif" font-size="14" lengthAdjust="spacing" textLength="180.5439" x="1333.2383" y="753.5">OperationRequestRepository</text><text fill="#000000" font-family="sans-serif" font-size="14" lengthAdjust="spacing" textLength="91.834" x="1625.0703" y="105.7285">SQL Database</text><path d="M1655.9873,54.6211 C1655.9873,44.6211 1673.9873,44.6211 1673.9873,44.6211 C1673.9873,44.6211 1691.9873,44.6211 1691.9873,54.6211 L1691.9873,80.6211 C1691.9873,90.6211 1673.9873,90.6211 1673.9873,90.6211 C1673.9873,90.6211 1655.9873,90.6211 1655.9873,80.6211 L1655.9873,54.6211 " fill="#E2E2F0" style="stroke:#181818;stroke-width:1.5;"/><path d="M1655.9873,54.6211 C1655.9873,64.6211 1673.9873,64.6211 1673.9873,64.6211 C1673.9873,64.6211 1691.9873,64.6211 1691.9873,54.6211 " fill="none" style="stroke:#181818;stroke-width:1.5;"/><text fill="#000000" font-family="sans-serif" font-size="14" lengthAdjust="spacing" textLength="91.834" x="1625.0703" y="727.8789">SQL Database</text><path d="M1655.9873,741.3926 C1655.9873,731.3926 1673.9873,731.3926 1673.9873,731.3926 C1673.9873,731.3926 1691.9873,731.3926 1691.9873,741.3926 L1691.9873,767.3926 C1691.9873,777.3926 1673.9873,777.3926 1673.9873,777.3926 C1673.9873,777.3926 1655.9873,777.3926 1655.9873,767.3926 L1655.9873,741.3926 " fill="#E2E2F0" style="stroke:#181818;stroke-width:1.5;"/><path d="M1655.9873,741.3926 C1655.9873,751.3926 1673.9873,751.3926 1673.9873,751.3926 C1673.9873,751.3926 1691.9873,751.3926 1691.9873,741.3926 " fill="none" style="stroke:#181818;stroke-width:1.5;"/><rect fill="#FFFFFF" height="584.5293" style="stroke:#181818;stroke-width:1.0;" width="10" x="50.793" y="119.2422"/><rect fill="#FFFFFF" height="394.7832" style="stroke:#181818;stroke-width:1.0;" width="10" x="271.6182" y="142.5332"/><rect fill="#FFFFFF" height="93.873" style="stroke:#181818;stroke-width:1.0;" width="10" x="271.6182" y="594.8984"/><rect fill="#FFFFFF" height="332.2012" style="stroke:#181818;stroke-width:1.0;" width="10" x="519.9243" y="173.8242"/><rect fill="#FFFFFF" height="31.291" style="stroke:#181818;stroke-width:1.0;" width="10" x="519.9243" y="626.1895"/><rect fill="#FFFFFF" height="144.4551" style="stroke:#181818;stroke-width:1.0;" width="10" x="764.6377" y="330.2793"/><rect fill="#FFFFFF" height="31.291" style="stroke:#181818;stroke-width:1.0;" width="10" x="1232.6489" y="405.1523"/><rect fill="#FFFFFF" height="93.873" style="stroke:#181818;stroke-width:1.0;" width="10" x="1418.5103" y="205.1152"/><rect fill="#FFFFFF" height="31.291" style="stroke:#181818;stroke-width:1.0;" width="10" x="1668.9873" y="236.4063"/><polygon fill="#181818" points="259.6182,138.5332,269.6182,142.5332,259.6182,146.5332,263.6182,142.5332" style="stroke:#181818;stroke-width:1.0;"/><line style="stroke:#181818;stroke-width:1.0;" x1="60.793" x2="265.6182" y1="142.5332" y2="142.5332"/><text fill="#000000" font-family="sans-serif" font-size="13" font-weight="bold" lengthAdjust="spacing" textLength="7.23" x="67.793" y="137.2705">1</text><text fill="#000000" font-family="sans-serif" font-size="13" lengthAdjust="spacing" textLength="143.0762" x="79.0229" y="137.2705">GET /operationRequests</text><polygon fill="#181818" points="507.9243,169.8242,517.9243,173.8242,507.9243,177.8242,511.9243,173.8242" style="stroke:#181818;stroke-width:1.0;"/><line style="stroke:#181818;stroke-width:1.0;" x1="281.6182" x2="513.9243" y1="173.8242" y2="173.8242"/><text fill="#000000" font-family="sans-serif" font-size="13" font-weight="bold" lengthAdjust="spacing" textLength="7.23" x="288.6182" y="168.5615">2</text><text fill="#000000" font-family="sans-serif" font-size="13" lengthAdjust="spacing" textLength="79.46" x="299.8481" y="168.5615">GetAllAsync()</text><polygon fill="#181818" points="1406.5103,201.1152,1416.5103,205.1152,1406.5103,209.1152,1410.5103,205.1152" style="stroke:#181818;stroke-width:1.0;"/><line style="stroke:#181818;stroke-width:1.0;" x1="529.9243" x2="1412.5103" y1="205.1152" y2="205.1152"/><text fill="#000000" font-family="sans-serif" font-size="13" font-weight="bold" lengthAdjust="spacing" textLength="7.23" x="536.9243" y="199.8525">3</text><text fill="#000000" font-family="sans-serif" font-size="13" lengthAdjust="spacing" textLength="79.46" x="548.1543" y="199.8525">GetAllAsync()</text><polygon fill="#181818" points="1656.9873,232.4063,1666.9873,236.4063,1656.9873,240.4063,1660.9873,236.4063" style="stroke:#181818;stroke-width:1.0;"/><line style="stroke:#181818;stroke-width:1.0;" x1="1428.5103" x2="1662.9873" y1="236.4063" y2="236.4063"/><text fill="#000000" font-family="sans-serif" font-size="13" font-weight="bold" lengthAdjust="spacing" textLength="7.23" x="1435.5103" y="231.1436">4</text><text fill="#000000" font-family="sans-serif" font-size="13" lengthAdjust="spacing" textLength="210.2471" x="1446.7402" y="231.1436">SELECT * FROM OperationRequest</text><polygon fill="#181818" points="1439.5103,263.6973,1429.5103,267.6973,1439.5103,271.6973,1435.5103,267.6973" style="stroke:#181818;stroke-width:1.0;"/><line style="stroke:#181818;stroke-width:1.0;stroke-dasharray:2.0,2.0;" x1="1433.5103" x2="1672.9873" y1="267.6973" y2="267.6973"/><text fill="#000000" font-family="sans-serif" font-size="13" font-weight="bold" lengthAdjust="spacing" textLength="7.23" x="1445.5103" y="262.4346">5</text><text fill="#000000" font-family="sans-serif" font-size="13" lengthAdjust="spacing" textLength="140.9243" x="1456.7402" y="262.4346">List&lt;OperationRequest&gt;</text><polygon fill="#181818" points="540.9243,294.9883,530.9243,298.9883,540.9243,302.9883,536.9243,298.9883" style="stroke:#181818;stroke-width:1.0;"/><line style="stroke:#181818;stroke-width:1.0;stroke-dasharray:2.0,2.0;" x1="534.9243" x2="1422.5103" y1="298.9883" y2="298.9883"/><text fill="#000000" font-family="sans-serif" font-size="13" font-weight="bold" lengthAdjust="spacing" textLength="7.23" x="546.9243" y="293.7256">6</text><text fill="#000000" font-family="sans-serif" font-size="13" lengthAdjust="spacing" textLength="140.9243" x="558.1543" y="293.7256">List&lt;OperationRequest&gt;</text><polygon fill="#181818" points="752.6377,326.2793,762.6377,330.2793,752.6377,334.2793,756.6377,330.2793" style="stroke:#181818;stroke-width:1.0;"/><line style="stroke:#181818;stroke-width:1.0;" x1="529.9243" x2="758.6377" y1="330.2793" y2="330.2793"/><text fill="#000000" font-family="sans-serif" font-size="13" font-weight="bold" lengthAdjust="spacing" textLength="7.23" x="536.9243" y="325.0166">7</text><text fill="#000000" font-family="sans-serif" font-size="13" lengthAdjust="spacing" textLength="204.4834" x="548.1543" y="325.0166">ToDto(List&lt;OperationRequest&gt; list)</text><path d="M672.0898,345.2793 L744.5244,345.2793 L744.5244,354.5703 L734.5244,364.5703 L672.0898,364.5703 L672.0898,345.2793 " fill="#EEEEEE" style="stroke:#000000;stroke-width:1.5;"/><rect fill="none" height="99.1641" style="stroke:#000000;stroke-width:1.5;" width="654.1484" x="672.0898" y="345.2793"/><text fill="#000000" font-family="sans-serif" font-size="13" font-weight="bold" lengthAdjust="spacing" textLength="27.4346" x="687.0898" y="360.3076">loop</text><text fill="#000000" font-family="sans-serif" font-size="11" font-weight="bold" lengthAdjust="spacing" textLength="136.4849" x="759.5244" y="359.1494">[for all the list's members]</text><polygon fill="#181818" points="1220.6489,401.1523,1230.6489,405.1523,1220.6489,409.1523,1224.6489,405.1523" style="stroke:#181818;stroke-width:1.0;"/><line style="stroke:#181818;stroke-width:1.0;" x1="774.6377" x2="1226.6489" y1="405.1523" y2="405.1523"/><text fill="#000000" font-family="sans-serif" font-size="13" font-weight="bold" lengthAdjust="spacing" textLength="7.23" x="781.6377" y="391.2441">8</text><text fill="#000000" font-family="sans-serif" font-size="13" lengthAdjust="spacing" textLength="427.7813" x="792.8677" y="382.5986">Create(OperationRequestDTO(operationRequestId, priority, deadlineDate,</text><text fill="#000000" font-family="sans-serif" font-size="13" lengthAdjust="spacing" textLength="341.0405" x="796.4795" y="399.8896">operationTypeId, LicenseNumber, MedicalRecordNumber))</text><polygon fill="#181818" points="785.6377,432.4434,775.6377,436.4434,785.6377,440.4434,781.6377,436.4434" style="stroke:#181818;stroke-width:1.0;"/><line style="stroke:#181818;stroke-width:1.0;stroke-dasharray:2.0,2.0;" x1="779.6377" x2="1236.6489" y1="436.4434" y2="436.4434"/><text fill="#000000" font-family="sans-serif" font-size="13" font-weight="bold" lengthAdjust="spacing" textLength="7.23" x="791.6377" y="431.1807">9</text><text fill="#000000" font-family="sans-serif" font-size="13" lengthAdjust="spacing" textLength="132.9517" x="802.8677" y="431.1807">OperationRequestDTO</text><polygon fill="#181818" points="540.9243,470.7344,530.9243,474.7344,540.9243,478.7344,536.9243,474.7344" style="stroke:#181818;stroke-width:1.0;"/><line style="stroke:#181818;stroke-width:1.0;stroke-dasharray:2.0,2.0;" x1="534.9243" x2="768.6377" y1="474.7344" y2="474.7344"/><text fill="#000000" font-family="sans-serif" font-size="13" font-weight="bold" lengthAdjust="spacing" textLength="14.46" x="546.9243" y="469.4717">10</text><text fill="#000000" font-family="sans-serif" font-size="13" lengthAdjust="spacing" textLength="168.3652" x="565.3843" y="469.4717">List&lt;OperationRequestDTO&gt;</text><polygon fill="#181818" points="292.6182,502.0254,282.6182,506.0254,292.6182,510.0254,288.6182,506.0254" style="stroke:#181818;stroke-width:1.0;"/><line style="stroke:#181818;stroke-width:1.0;stroke-dasharray:2.0,2.0;" x1="286.6182" x2="523.9243" y1="506.0254" y2="506.0254"/><text fill="#000000" font-family="sans-serif" font-size="13" font-weight="bold" lengthAdjust="spacing" textLength="14.46" x="298.6182" y="500.7627">11</text><text fill="#000000" font-family="sans-serif" font-size="13" lengthAdjust="spacing" textLength="168.3652" x="317.0781" y="500.7627">List&lt;OperationRequestDTO&gt;</text><polygon fill="#181818" points="71.793,533.3164,61.793,537.3164,71.793,541.3164,67.793,537.3164" style="stroke:#181818;stroke-width:1.0;"/><line style="stroke:#181818;stroke-width:1.0;stroke-dasharray:2.0,2.0;" x1="65.793" x2="275.6182" y1="537.3164" y2="537.3164"/><text fill="#000000" font-family="sans-serif" font-size="13" font-weight="bold" lengthAdjust="spacing" textLength="14.46" x="77.793" y="532.0537">12</text><text fill="#000000" font-family="sans-serif" font-size="13" lengthAdjust="spacing" textLength="168.3652" x="96.2529" y="532.0537">List&lt;OperationRequestDTO&gt;</text><path d="M10,552.3164 L70.1709,552.3164 L70.1709,561.6074 L60.1709,571.6074 L10,571.6074 L10,552.3164 " fill="#EEEEEE" style="stroke:#000000;stroke-width:1.5;"/><rect fill="none" height="144.4551" style="stroke:#000000;stroke-width:1.5;" width="612.0791" x="10" y="552.3164"/><text fill="#000000" font-family="sans-serif" font-size="13" font-weight="bold" lengthAdjust="spacing" textLength="15.1709" x="25" y="567.3447">alt</text><text fill="#000000" font-family="sans-serif" font-size="11" font-weight="bold" lengthAdjust="spacing" textLength="204.7515" x="85.1709" y="566.1865">[The doctor applies one or more filters]</text><polygon fill="#181818" points="259.6182,590.8984,269.6182,594.8984,259.6182,598.8984,263.6182,594.8984" style="stroke:#181818;stroke-width:1.0;"/><line style="stroke:#181818;stroke-width:1.0;" x1="60.793" x2="265.6182" y1="594.8984" y2="594.8984"/><text fill="#000000" font-family="sans-serif" font-size="13" font-weight="bold" lengthAdjust="spacing" textLength="14.46" x="67.793" y="589.6357">13</text><text fill="#000000" font-family="sans-serif" font-size="13" lengthAdjust="spacing" textLength="142.3525" x="86.2529" y="589.6357">filters operation requests</text><polygon fill="#181818" points="507.9243,622.1895,517.9243,626.1895,507.9243,630.1895,511.9243,626.1895" style="stroke:#181818;stroke-width:1.0;"/><line style="stroke:#181818;stroke-width:1.0;" x1="281.6182" x2="513.9243" y1="626.1895" y2="626.1895"/><text fill="#000000" font-family="sans-serif" font-size="13" font-weight="bold" lengthAdjust="spacing" textLength="14.46" x="288.6182" y="620.9268">14</text><text fill="#000000" font-family="sans-serif" font-size="13" lengthAdjust="spacing" textLength="200.8462" x="307.0781" y="620.9268">FilterOperationRequestsAsync(list)</text><polygon fill="#181818" points="292.6182,653.4805,282.6182,657.4805,292.6182,661.4805,288.6182,657.4805" style="stroke:#181818;stroke-width:1.0;"/><line style="stroke:#181818;stroke-width:1.0;stroke-dasharray:2.0,2.0;" x1="286.6182" x2="523.9243" y1="657.4805" y2="657.4805"/><text fill="#000000" font-family="sans-serif" font-size="13" font-weight="bold" lengthAdjust="spacing" textLength="14.46" x="298.6182" y="652.2178">15</text><text fill="#000000" font-family="sans-serif" font-size="13" lengthAdjust="spacing" textLength="168.3652" x="317.0781" y="652.2178">List&lt;OperationRequestDTO&gt;</text><polygon fill="#181818" points="71.793,684.7715,61.793,688.7715,71.793,692.7715,67.793,688.7715" style="stroke:#181818;stroke-width:1.0;"/><line style="stroke:#181818;stroke-width:1.0;stroke-dasharray:2.0,2.0;" x1="65.793" x2="275.6182" y1="688.7715" y2="688.7715"/><text fill="#000000" font-family="sans-serif" font-size="13" font-weight="bold" lengthAdjust="spacing" textLength="14.46" x="77.793" y="683.5088">16</text><text fill="#000000" font-family="sans-serif" font-size="13" lengthAdjust="spacing" textLength="168.3652" x="96.2529" y="683.5088">List&lt;OperationRequestDTO&gt;</text><!--SRC=[hLHDYzim4BthLmovRBOa57egImW4nruATiFQxcqlMdkM2XJ9bPI5_FkE53TU2xKqi3xOQ6RU6yt7CpyvhKx75pICjS99XCMFxCjNM4Cfh0CzeE5EQ0K6VvtGEhjWRE36YKuCN3bO54Ohbwj-0Tn2aS-Tcqr6NgEbHBFTFgl37xhwmZPv0poBqRjXaA8BY1IyGVCcEWpO9iPMVA1mcy9TN05MnR1zUqX1o1pYwHiZQXoq5KuRWSbiL_yvCDIivuw_S4kjRfvAs8-dInLF9MEyS-ADE_JjP4KEworay02FUGkVTKHk6GDwhf0i7CChyy360z7jfDpPi-gMzvF_YcacM-CnzNzWwibMXpnKoGCqUPbdBNo2eZvK43SYbPhgdP8JnthCxxTl4nDifzWUqnnrO6XkOwYZ1bG4R_NUwMMQ12IPKrsf9flKUe1NRO1B2Uud1ioTXIDwiTafiF8PQQqePsQGM9Q9tLl6S__Mhs0mWfREdLU-bbuAXRHBk7fMaspRyu0-j2IPA8lVWz9NK65Fif8rTjhq5-DzgXw_xLUhl-Dwx4xYYidEpkoe-bdP_ngKbs6IiOBPi4PjtCRHp4H252IoMpcoT_VWqa5B8-vrv_p4_LyBBMY5GCUZDWYlGhhPs2TTZwx4lpOnaPI-Yq0GtznUnFktLMq-e8tmmNsa1HbFxmA8a_q6]--></g></svg>