<svg xmlns="http://www.w3.org/2000/svg" xmlns:xlink="http://www.w3.org/1999/xlink" contentStyleType="text/css" height="507px" preserveAspectRatio="none" style="width:958px;height:507px;background:#FFFFFF;" version="1.1" viewBox="0 0 958 507" width="958px" zoomAndPan="magnify"><defs/><g><rect fill="#FFFFFF" height="325.3711" style="stroke:#181818;stroke-width:1.0;" width="10" x="40.1382" y="91.4883"/><rect fill="#FFFFFF" height="44.6211" style="stroke:#181818;stroke-width:1.0;" width="10" x="565.7651" y="112.7988"/><rect fill="#FFFFFF" height="230.1289" style="stroke:#181818;stroke-width:1.0;" width="10" x="565.7651" y="186.7305"/><rect fill="#FFFFFF" height="29.3105" style="stroke:#181818;stroke-width:1.0;" width="10" x="901.1274" y="240.3516"/><rect fill="#FFFFFF" height="29.3105" style="stroke:#181818;stroke-width:1.0;" width="10" x="901.1274" y="343.2383"/><rect fill="none" height="208.1289" style="stroke:#000000;stroke-width:1.5;" width="941.2402" x="10" y="201.7305"/><line style="stroke:#181818;stroke-width:0.5;stroke-dasharray:5.0,5.0;" x1="45" x2="45" y1="81.4883" y2="426.8594"/><line style="stroke:#181818;stroke-width:0.5;stroke-dasharray:5.0,5.0;" x1="570.3418" x2="570.3418" y1="81.4883" y2="426.8594"/><line style="stroke:#181818;stroke-width:0.5;stroke-dasharray:5.0,5.0;" x1="906.0146" x2="906.0146" y1="81.4883" y2="426.8594"/><text fill="#000000" font-family="sans-serif" font-size="14" lengthAdjust="spacing" textLength="44.2764" x="20" y="78.5352">Admin</text><ellipse cx="45.1382" cy="13.5" fill="#E2E2F0" rx="8" ry="8" style="stroke:#181818;stroke-width:0.5;"/><path d="M45.1382,21.5 L45.1382,48.5 M32.1382,29.5 L58.1382,29.5 M45.1382,48.5 L32.1382,63.5 M45.1382,48.5 L58.1382,63.5 " fill="none" style="stroke:#181818;stroke-width:0.5;"/><text fill="#000000" font-family="sans-serif" font-size="14" lengthAdjust="spacing" textLength="44.2764" x="20" y="439.3945">Admin</text><ellipse cx="45.1382" cy="450.8477" fill="#E2E2F0" rx="8" ry="8" style="stroke:#181818;stroke-width:0.5;"/><path d="M45.1382,458.8477 L45.1382,485.8477 M32.1382,466.8477 L58.1382,466.8477 M45.1382,485.8477 L32.1382,500.8477 M45.1382,485.8477 L58.1382,500.8477 " fill="none" style="stroke:#181818;stroke-width:0.5;"/><rect fill="#E2E2F0" height="30.4883" rx="2.5" ry="2.5" style="stroke:#181818;stroke-width:0.5;" width="74.8467" x="533.3418" y="50"/><text fill="#000000" font-family="sans-serif" font-size="14" lengthAdjust="spacing" textLength="60.8467" x="540.3418" y="70.5352">FrontEnd</text><rect fill="#E2E2F0" height="30.4883" rx="2.5" ry="2.5" style="stroke:#181818;stroke-width:0.5;" width="74.8467" x="533.3418" y="425.8594"/><text fill="#000000" font-family="sans-serif" font-size="14" lengthAdjust="spacing" textLength="60.8467" x="540.3418" y="446.3945">FrontEnd</text><rect fill="#E2E2F0" height="30.4883" rx="2.5" ry="2.5" style="stroke:#181818;stroke-width:0.5;" width="70.2256" x="871.0146" y="50"/><text fill="#000000" font-family="sans-serif" font-size="14" lengthAdjust="spacing" textLength="56.2256" x="878.0146" y="70.5352">BackEnd</text><rect fill="#E2E2F0" height="30.4883" rx="2.5" ry="2.5" style="stroke:#181818;stroke-width:0.5;" width="70.2256" x="871.0146" y="425.8594"/><text fill="#000000" font-family="sans-serif" font-size="14" lengthAdjust="spacing" textLength="56.2256" x="878.0146" y="446.3945">BackEnd</text><rect fill="#FFFFFF" height="325.3711" style="stroke:#181818;stroke-width:1.0;" width="10" x="40.1382" y="91.4883"/><rect fill="#FFFFFF" height="44.6211" style="stroke:#181818;stroke-width:1.0;" width="10" x="565.7651" y="112.7988"/><rect fill="#FFFFFF" height="230.1289" style="stroke:#181818;stroke-width:1.0;" width="10" x="565.7651" y="186.7305"/><rect fill="#FFFFFF" height="29.3105" style="stroke:#181818;stroke-width:1.0;" width="10" x="901.1274" y="240.3516"/><rect fill="#FFFFFF" height="29.3105" style="stroke:#181818;stroke-width:1.0;" width="10" x="901.1274" y="343.2383"/><polygon fill="#181818" points="553.7651,108.7988,563.7651,112.7988,553.7651,116.7988,557.7651,112.7988" style="stroke:#181818;stroke-width:1.0;"/><line style="stroke:#181818;stroke-width:1.0;" x1="50.1382" x2="559.7651" y1="112.7988" y2="112.7988"/><text fill="#000000" font-family="sans-serif" font-size="13" font-weight="bold" lengthAdjust="spacing" textLength="8.5757" x="57.1382" y="108.0566">1</text><text fill="#000000" font-family="sans-serif" font-size="13" lengthAdjust="spacing" textLength="201.0303" x="69.7139" y="108.0566">wants to create a patient profile</text><polygon fill="#181818" points="61.1382,153.4199,51.1382,157.4199,61.1382,161.4199,57.1382,157.4199" style="stroke:#181818;stroke-width:1.0;"/><line style="stroke:#181818;stroke-width:1.0;stroke-dasharray:2.0,2.0;" x1="55.1382" x2="569.7651" y1="157.4199" y2="157.4199"/><text fill="#000000" font-family="sans-serif" font-size="13" font-weight="bold" lengthAdjust="spacing" textLength="8.5757" x="67.1382" y="145.0225">2</text><text fill="#000000" font-family="sans-serif" font-size="13" lengthAdjust="spacing" textLength="449.5854" x="79.7139" y="137.3672">requests data (patientName, birthDate, gender, medicalRecordNumber,</text><text fill="#000000" font-family="sans-serif" font-size="13" lengthAdjust="spacing" textLength="479.0513" x="79.7139" y="152.6777">phoneNumber, medicalConditions, emergencyContact, appointmentHistory)</text><polygon fill="#181818" points="553.7651,182.7305,563.7651,186.7305,553.7651,190.7305,557.7651,186.7305" style="stroke:#181818;stroke-width:1.0;"/><line style="stroke:#181818;stroke-width:1.0;" x1="50.1382" x2="559.7651" y1="186.7305" y2="186.7305"/><text fill="#000000" font-family="sans-serif" font-size="13" font-weight="bold" lengthAdjust="spacing" textLength="8.5757" x="57.1382" y="181.9883">3</text><text fill="#000000" font-family="sans-serif" font-size="13" lengthAdjust="spacing" textLength="85.541" x="69.7139" y="181.9883">provides data</text><path d="M10,201.7305 L72.1387,201.7305 L72.1387,209.041 L62.1387,219.041 L10,219.041 L10,201.7305 " fill="#EEEEEE" style="stroke:#000000;stroke-width:1.5;"/><rect fill="none" height="208.1289" style="stroke:#000000;stroke-width:1.5;" width="941.2402" x="10" y="201.7305"/><text fill="#000000" font-family="sans-serif" font-size="13" font-weight="bold" lengthAdjust="spacing" textLength="17.1387" x="25" y="215.2988">alt</text><text fill="#000000" font-family="sans-serif" font-size="11" font-weight="bold" lengthAdjust="spacing" textLength="213.5654" x="87.1387" y="214.3652">[Email and Phone number are unique]</text><polygon fill="#181818" points="889.1274,236.3516,899.1274,240.3516,889.1274,244.3516,893.1274,240.3516" style="stroke:#181818;stroke-width:1.0;"/><line style="stroke:#181818;stroke-width:1.0;" x1="575.7651" x2="895.1274" y1="240.3516" y2="240.3516"/><text fill="#000000" font-family="sans-serif" font-size="13" font-weight="bold" lengthAdjust="spacing" textLength="8.5757" x="582.7651" y="235.6094">4</text><text fill="#000000" font-family="sans-serif" font-size="13" lengthAdjust="spacing" textLength="119.1582" x="595.3408" y="235.6094">POST /api/Patients</text><polygon fill="#181818" points="586.7651,265.6621,576.7651,269.6621,586.7651,273.6621,582.7651,269.6621" style="stroke:#181818;stroke-width:1.0;"/><line style="stroke:#181818;stroke-width:1.0;stroke-dasharray:2.0,2.0;" x1="580.7651" x2="905.1274" y1="269.6621" y2="269.6621"/><text fill="#000000" font-family="sans-serif" font-size="13" font-weight="bold" lengthAdjust="spacing" textLength="8.5757" x="592.7651" y="264.9199">5</text><text fill="#000000" font-family="sans-serif" font-size="13" lengthAdjust="spacing" textLength="196.8281" x="605.3408" y="264.9199">success: patient profile created</text><polygon fill="#181818" points="61.1382,294.9727,51.1382,298.9727,61.1382,302.9727,57.1382,298.9727" style="stroke:#181818;stroke-width:1.0;"/><line style="stroke:#181818;stroke-width:1.0;stroke-dasharray:2.0,2.0;" x1="55.1382" x2="564.7651" y1="298.9727" y2="298.9727"/><text fill="#000000" font-family="sans-serif" font-size="13" font-weight="bold" lengthAdjust="spacing" textLength="8.5757" x="67.1382" y="294.2305">6</text><text fill="#000000" font-family="sans-serif" font-size="13" lengthAdjust="spacing" textLength="183.5298" x="79.7139" y="294.2305">shows created patient profile</text><line style="stroke:#000000;stroke-width:1.0;stroke-dasharray:2.0,2.0;" x1="10" x2="951.2402" y1="307.9727" y2="307.9727"/><text fill="#000000" font-family="sans-serif" font-size="11" font-weight="bold" lengthAdjust="spacing" textLength="231.7466" x="15" y="318.6074">[Email and Phone number already exists]</text><polygon fill="#181818" points="889.1274,339.2383,899.1274,343.2383,889.1274,347.2383,893.1274,343.2383" style="stroke:#181818;stroke-width:1.0;"/><line style="stroke:#181818;stroke-width:1.0;" x1="575.7651" x2="895.1274" y1="343.2383" y2="343.2383"/><text fill="#000000" font-family="sans-serif" font-size="13" font-weight="bold" lengthAdjust="spacing" textLength="8.5757" x="582.7651" y="338.4961">7</text><text fill="#000000" font-family="sans-serif" font-size="13" lengthAdjust="spacing" textLength="119.1582" x="595.3408" y="338.4961">POST /api/Patients</text><polygon fill="#181818" points="586.7651,368.5488,576.7651,372.5488,586.7651,376.5488,582.7651,372.5488" style="stroke:#181818;stroke-width:1.0;"/><line style="stroke:#181818;stroke-width:1.0;stroke-dasharray:2.0,2.0;" x1="580.7651" x2="905.1274" y1="372.5488" y2="372.5488"/><text fill="#000000" font-family="sans-serif" font-size="13" font-weight="bold" lengthAdjust="spacing" textLength="8.5757" x="592.7651" y="367.8066">8</text><text fill="#000000" font-family="sans-serif" font-size="13" lengthAdjust="spacing" textLength="288.7866" x="605.3408" y="367.8066">error: email and phone number already exists</text><polygon fill="#181818" points="61.1382,397.8594,51.1382,401.8594,61.1382,405.8594,57.1382,401.8594" style="stroke:#181818;stroke-width:1.0;"/><line style="stroke:#181818;stroke-width:1.0;stroke-dasharray:2.0,2.0;" x1="55.1382" x2="564.7651" y1="401.8594" y2="401.8594"/><text fill="#000000" font-family="sans-serif" font-size="13" font-weight="bold" lengthAdjust="spacing" textLength="8.5757" x="67.1382" y="397.1172">9</text><text fill="#000000" font-family="sans-serif" font-size="13" lengthAdjust="spacing" textLength="188.354" x="79.7139" y="397.1172">informs error with suggestion</text><!--SRC=[lLDBJyCm3BxlLrWxWTHfzmaXCUZ4QKmyRbnCucqMRHAIbB5_Zvi-MCUGTYANrg_FdpydM4LhglAD_6Y4AbeFunjTiXa31dXvoXz78uS-icA79i9uuQs9kT4fliY7mJcgzouspnCWVsAa5WZar7ymkPRI6UoaA42qe3pLMGWE8vCWEM_NN52gw46aMtBKPv73H50IsWmyVLGK14jZHBXeKPPOKWPlxEFsJkeps93Hv3CeIRF2uf6KzNgPXizUZTjQGwtLfTnQepcoDI43AiaBWjgBCmgf3D0vooQMqkkUWsYtlqm4DHroxYWVZI-qPSfFrjJG_ZLhLuT5XBn4BW2DXbND4fgD0Ng2oh0CtsTtubpB0gJ5wk7f6QReUBfgH0c3pBxVF1_u1qPzvetUYNQebA8GPiVRQjUeXzK7OXmrILfSJIOjwjRkGWznwYBy8aT5e3-bAGH9xu6-P3FXF-KXxwsNJy_BdSdhNANOhAqlGzC8TXotifBDHXw0NDGVSOm-SHaFhFGclm40]--></g></svg>