<svg xmlns="http://www.w3.org/2000/svg" xmlns:xlink="http://www.w3.org/1999/xlink" contentStyleType="text/css" height="404px" preserveAspectRatio="none" style="width:576px;height:404px;background:#FFFFFF;" version="1.1" viewBox="0 0 576 404" width="576px" zoomAndPan="magnify"><defs/><g><rect fill="#FFFFFF" height="222.1289" style="stroke:#181818;stroke-width:1.0;" width="10" x="40.1382" y="91.4883"/><rect fill="#FFFFFF" height="200.8184" style="stroke:#181818;stroke-width:1.0;" width="10" x="276.7627" y="112.7988"/><rect fill="#FFFFFF" height="171.5078" style="stroke:#181818;stroke-width:1.0;" width="10" x="519.5698" y="142.1094"/><rect fill="none" height="149.5078" style="stroke:#000000;stroke-width:1.5;" width="559.6826" x="10" y="157.1094"/><line style="stroke:#181818;stroke-width:0.5;stroke-dasharray:5.0,5.0;" x1="45" x2="45" y1="81.4883" y2="323.6172"/><line style="stroke:#181818;stroke-width:0.5;stroke-dasharray:5.0,5.0;" x1="281.3394" x2="281.3394" y1="81.4883" y2="323.6172"/><line style="stroke:#181818;stroke-width:0.5;stroke-dasharray:5.0,5.0;" x1="524.457" x2="524.457" y1="81.4883" y2="323.6172"/><text fill="#000000" font-family="sans-serif" font-size="14" lengthAdjust="spacing" textLength="44.2764" x="20" y="78.5352">Admin</text><ellipse cx="45.1382" cy="13.5" fill="#E2E2F0" rx="8" ry="8" style="stroke:#181818;stroke-width:0.5;"/><path d="M45.1382,21.5 L45.1382,48.5 M32.1382,29.5 L58.1382,29.5 M45.1382,48.5 L32.1382,63.5 M45.1382,48.5 L58.1382,63.5 " fill="none" style="stroke:#181818;stroke-width:0.5;"/><text fill="#000000" font-family="sans-serif" font-size="14" lengthAdjust="spacing" textLength="44.2764" x="20" y="336.1523">Admin</text><ellipse cx="45.1382" cy="347.6055" fill="#E2E2F0" rx="8" ry="8" style="stroke:#181818;stroke-width:0.5;"/><path d="M45.1382,355.6055 L45.1382,382.6055 M32.1382,363.6055 L58.1382,363.6055 M45.1382,382.6055 L32.1382,397.6055 M45.1382,382.6055 L58.1382,397.6055 " fill="none" style="stroke:#181818;stroke-width:0.5;"/><rect fill="#E2E2F0" height="30.4883" rx="2.5" ry="2.5" style="stroke:#181818;stroke-width:0.5;" width="74.8467" x="244.3394" y="50"/><text fill="#000000" font-family="sans-serif" font-size="14" lengthAdjust="spacing" textLength="60.8467" x="251.3394" y="70.5352">FrontEnd</text><rect fill="#E2E2F0" height="30.4883" rx="2.5" ry="2.5" style="stroke:#181818;stroke-width:0.5;" width="74.8467" x="244.3394" y="322.6172"/><text fill="#000000" font-family="sans-serif" font-size="14" lengthAdjust="spacing" textLength="60.8467" x="251.3394" y="343.1523">FrontEnd</text><rect fill="#E2E2F0" height="30.4883" rx="2.5" ry="2.5" style="stroke:#181818;stroke-width:0.5;" width="70.2256" x="489.457" y="50"/><text fill="#000000" font-family="sans-serif" font-size="14" lengthAdjust="spacing" textLength="56.2256" x="496.457" y="70.5352">BackEnd</text><rect fill="#E2E2F0" height="30.4883" rx="2.5" ry="2.5" style="stroke:#181818;stroke-width:0.5;" width="70.2256" x="489.457" y="322.6172"/><text fill="#000000" font-family="sans-serif" font-size="14" lengthAdjust="spacing" textLength="56.2256" x="496.457" y="343.1523">BackEnd</text><rect fill="#FFFFFF" height="222.1289" style="stroke:#181818;stroke-width:1.0;" width="10" x="40.1382" y="91.4883"/><rect fill="#FFFFFF" height="200.8184" style="stroke:#181818;stroke-width:1.0;" width="10" x="276.7627" y="112.7988"/><rect fill="#FFFFFF" height="171.5078" style="stroke:#181818;stroke-width:1.0;" width="10" x="519.5698" y="142.1094"/><polygon fill="#181818" points="264.7627,108.7988,274.7627,112.7988,264.7627,116.7988,268.7627,112.7988" style="stroke:#181818;stroke-width:1.0;"/><line style="stroke:#181818;stroke-width:1.0;" x1="50.1382" x2="270.7627" y1="112.7988" y2="112.7988"/><text fill="#000000" font-family="sans-serif" font-size="13" font-weight="bold" lengthAdjust="spacing" textLength="8.5757" x="57.1382" y="108.0566">1</text><text fill="#000000" font-family="sans-serif" font-size="13" lengthAdjust="spacing" textLength="172.9292" x="69.7139" y="108.0566">wants to see patient details</text><polygon fill="#181818" points="507.5698,138.1094,517.5698,142.1094,507.5698,146.1094,511.5698,142.1094" style="stroke:#181818;stroke-width:1.0;"/><line style="stroke:#181818;stroke-width:1.0;" x1="286.7627" x2="513.5698" y1="142.1094" y2="142.1094"/><text fill="#000000" font-family="sans-serif" font-size="13" font-weight="bold" lengthAdjust="spacing" textLength="8.5757" x="293.7627" y="137.3672">2</text><text fill="#000000" font-family="sans-serif" font-size="13" lengthAdjust="spacing" textLength="104.1333" x="306.3384" y="137.3672">GET /Patients/id</text><path d="M10,157.1094 L72.1387,157.1094 L72.1387,164.4199 L62.1387,174.4199 L10,174.4199 L10,157.1094 " fill="#EEEEEE" style="stroke:#000000;stroke-width:1.5;"/><rect fill="none" height="149.5078" style="stroke:#000000;stroke-width:1.5;" width="559.6826" x="10" y="157.1094"/><text fill="#000000" font-family="sans-serif" font-size="13" font-weight="bold" lengthAdjust="spacing" textLength="17.1387" x="25" y="170.6777">alt</text><text fill="#000000" font-family="sans-serif" font-size="11" font-weight="bold" lengthAdjust="spacing" textLength="110.8218" x="87.1387" y="169.7441">[patient was found]</text><polygon fill="#181818" points="297.7627,191.7305,287.7627,195.7305,297.7627,199.7305,293.7627,195.7305" style="stroke:#181818;stroke-width:1.0;"/><line style="stroke:#181818;stroke-width:1.0;stroke-dasharray:2.0,2.0;" x1="291.7627" x2="518.5698" y1="195.7305" y2="195.7305"/><text fill="#000000" font-family="sans-serif" font-size="13" font-weight="bold" lengthAdjust="spacing" textLength="8.5757" x="303.7627" y="190.9883">3</text><text fill="#000000" font-family="sans-serif" font-size="13" lengthAdjust="spacing" textLength="196.2314" x="316.3384" y="190.9883">success: returns patient details</text><polygon fill="#181818" points="61.1382,221.041,51.1382,225.041,61.1382,229.041,57.1382,225.041" style="stroke:#181818;stroke-width:1.0;"/><line style="stroke:#181818;stroke-width:1.0;stroke-dasharray:2.0,2.0;" x1="55.1382" x2="275.7627" y1="225.041" y2="225.041"/><text fill="#000000" font-family="sans-serif" font-size="13" font-weight="bold" lengthAdjust="spacing" textLength="8.5757" x="67.1382" y="220.2988">4</text><text fill="#000000" font-family="sans-serif" font-size="13" lengthAdjust="spacing" textLength="190.0488" x="79.7139" y="220.2988">success: shows patient details</text><line style="stroke:#000000;stroke-width:1.0;stroke-dasharray:2.0,2.0;" x1="10" x2="569.6826" y1="234.041" y2="234.041"/><text fill="#000000" font-family="sans-serif" font-size="11" font-weight="bold" lengthAdjust="spacing" textLength="107.3521" x="15" y="244.6758">[patient not found]</text><polygon fill="#181818" points="297.7627,265.3066,287.7627,269.3066,297.7627,273.3066,293.7627,269.3066" style="stroke:#181818;stroke-width:1.0;"/><line style="stroke:#181818;stroke-width:1.0;stroke-dasharray:2.0,2.0;" x1="291.7627" x2="518.5698" y1="269.3066" y2="269.3066"/><text fill="#000000" font-family="sans-serif" font-size="13" font-weight="bold" lengthAdjust="spacing" textLength="8.5757" x="303.7627" y="264.5645">5</text><text fill="#000000" font-family="sans-serif" font-size="13" lengthAdjust="spacing" textLength="149.792" x="316.3384" y="264.5645">error: patient not found</text><polygon fill="#181818" points="61.1382,294.6172,51.1382,298.6172,61.1382,302.6172,57.1382,298.6172" style="stroke:#181818;stroke-width:1.0;"/><line style="stroke:#181818;stroke-width:1.0;stroke-dasharray:2.0,2.0;" x1="55.1382" x2="275.7627" y1="298.6172" y2="298.6172"/><text fill="#000000" font-family="sans-serif" font-size="13" font-weight="bold" lengthAdjust="spacing" textLength="8.5757" x="67.1382" y="293.875">6</text><text fill="#000000" font-family="sans-serif" font-size="13" lengthAdjust="spacing" textLength="149.792" x="79.7139" y="293.875">error: patient not found</text><!--SRC=[XPBFRiCW3CRlF8MLUzHxD5LQ9BBhj7OFmC3Lq5A8i5bUVy0QacwjwWF2sD-FZpygidVn_8512ANP1sYUpTcw1XJ1-q6-2J6fm5RRIJc6PWZUiNIcr0TvNUoL_bfglIn0-wqOBo18aMVGxfEqWpc92DW38SAas6A266HbHohDLPysodaPSWmoCte97Rp88-nUVyMqiwRsL75gMnT7hZlDoUN9HxTASgJkjlXBR8fQ8r470Ja6HpTDBb6JSiIdjlt3e4y__oVSHk18wuqupmzyOWW-T0y4T_pTrQvcDY23csiLL-XDQNckpLBv0Jy0]--></g></svg>