<svg xmlns="http://www.w3.org/2000/svg" xmlns:xlink="http://www.w3.org/1999/xlink" contentStyleType="text/css" height="573px" preserveAspectRatio="none" style="width:580px;height:573px;background:#FFFFFF;" version="1.1" viewBox="0 0 580 573" width="580px" zoomAndPan="magnify"><defs/><g><rect fill="#FFFFFF" height="391.0371" style="stroke:#181818;stroke-width:1.0;" width="10" x="40.1382" y="91.4883"/><rect fill="#FFFFFF" height="123.2422" style="stroke:#181818;stroke-width:1.0;" width="10" x="283.6436" y="112.7988"/><rect fill="#FFFFFF" height="202.1738" style="stroke:#181818;stroke-width:1.0;" width="10" x="283.6436" y="265.3516"/><rect fill="#FFFFFF" height="64.6211" style="stroke:#181818;stroke-width:1.0;" width="10" x="494.1221" y="142.1094"/><rect fill="#FFFFFF" height="29.3105" style="stroke:#181818;stroke-width:1.0;" width="10" x="494.1221" y="318.9727"/><rect fill="#FFFFFF" height="29.3105" style="stroke:#181818;stroke-width:1.0;" width="10" x="494.1221" y="408.9043"/><rect fill="none" height="195.1738" style="stroke:#000000;stroke-width:1.5;" width="534.2349" x="10" y="280.3516"/><line style="stroke:#181818;stroke-width:0.5;stroke-dasharray:5.0,5.0;" x1="45" x2="45" y1="81.4883" y2="492.5254"/><line style="stroke:#181818;stroke-width:0.5;stroke-dasharray:5.0,5.0;" x1="288.2202" x2="288.2202" y1="81.4883" y2="492.5254"/><line style="stroke:#181818;stroke-width:0.5;stroke-dasharray:5.0,5.0;" x1="499.0093" x2="499.0093" y1="81.4883" y2="492.5254"/><line style="stroke:#181818;stroke-width:0.5;stroke-dasharray:5.0,5.0;" x1="559.2349" x2="559.2349" y1="81.4883" y2="492.5254"/><text fill="#000000" font-family="sans-serif" font-size="14" lengthAdjust="spacing" textLength="44.2764" x="20" y="78.5352">Admin</text><ellipse cx="45.1382" cy="13.5" fill="#E2E2F0" rx="8" ry="8" style="stroke:#181818;stroke-width:0.5;"/><path d="M45.1382,21.5 L45.1382,48.5 M32.1382,29.5 L58.1382,29.5 M45.1382,48.5 L32.1382,63.5 M45.1382,48.5 L58.1382,63.5 " fill="none" style="stroke:#181818;stroke-width:0.5;"/><text fill="#000000" font-family="sans-serif" font-size="14" lengthAdjust="spacing" textLength="44.2764" x="20" y="505.0605">Admin</text><ellipse cx="45.1382" cy="516.5137" fill="#E2E2F0" rx="8" ry="8" style="stroke:#181818;stroke-width:0.5;"/><path d="M45.1382,524.5137 L45.1382,551.5137 M32.1382,532.5137 L58.1382,532.5137 M45.1382,551.5137 L32.1382,566.5137 M45.1382,551.5137 L58.1382,566.5137 " fill="none" style="stroke:#181818;stroke-width:0.5;"/><rect fill="#E2E2F0" height="30.4883" rx="2.5" ry="2.5" style="stroke:#181818;stroke-width:0.5;" width="74.8467" x="251.2202" y="50"/><text fill="#000000" font-family="sans-serif" font-size="14" lengthAdjust="spacing" textLength="60.8467" x="258.2202" y="70.5352">FrontEnd</text><rect fill="#E2E2F0" height="30.4883" rx="2.5" ry="2.5" style="stroke:#181818;stroke-width:0.5;" width="74.8467" x="251.2202" y="491.5254"/><text fill="#000000" font-family="sans-serif" font-size="14" lengthAdjust="spacing" textLength="60.8467" x="258.2202" y="512.0605">FrontEnd</text><rect fill="#E2E2F0" height="30.4883" rx="2.5" ry="2.5" style="stroke:#181818;stroke-width:0.5;" width="70.2256" x="464.0093" y="50"/><text fill="#000000" font-family="sans-serif" font-size="14" lengthAdjust="spacing" textLength="56.2256" x="471.0093" y="70.5352">BackEnd</text><rect fill="#E2E2F0" height="30.4883" rx="2.5" ry="2.5" style="stroke:#181818;stroke-width:0.5;" width="70.2256" x="464.0093" y="491.5254"/><text fill="#000000" font-family="sans-serif" font-size="14" lengthAdjust="spacing" textLength="56.2256" x="471.0093" y="512.0605">BackEnd</text><rect fill="#E2E2F0" height="30.4883" rx="2.5" ry="2.5" style="stroke:#181818;stroke-width:0.5;" width="30.6934" x="544.2349" y="50"/><text fill="#000000" font-family="sans-serif" font-size="14" lengthAdjust="spacing" textLength="16.6934" x="551.2349" y="70.5352">SV</text><rect fill="#E2E2F0" height="30.4883" rx="2.5" ry="2.5" style="stroke:#181818;stroke-width:0.5;" width="30.6934" x="544.2349" y="491.5254"/><text fill="#000000" font-family="sans-serif" font-size="14" lengthAdjust="spacing" textLength="16.6934" x="551.2349" y="512.0605">SV</text><rect fill="#FFFFFF" height="391.0371" style="stroke:#181818;stroke-width:1.0;" width="10" x="40.1382" y="91.4883"/><rect fill="#FFFFFF" height="123.2422" style="stroke:#181818;stroke-width:1.0;" width="10" x="283.6436" y="112.7988"/><rect fill="#FFFFFF" height="202.1738" style="stroke:#181818;stroke-width:1.0;" width="10" x="283.6436" y="265.3516"/><rect fill="#FFFFFF" height="64.6211" style="stroke:#181818;stroke-width:1.0;" width="10" x="494.1221" y="142.1094"/><rect fill="#FFFFFF" height="29.3105" style="stroke:#181818;stroke-width:1.0;" width="10" x="494.1221" y="318.9727"/><rect fill="#FFFFFF" height="29.3105" style="stroke:#181818;stroke-width:1.0;" width="10" x="494.1221" y="408.9043"/><polygon fill="#181818" points="271.6436,108.7988,281.6436,112.7988,271.6436,116.7988,275.6436,112.7988" style="stroke:#181818;stroke-width:1.0;"/><line style="stroke:#181818;stroke-width:1.0;" x1="50.1382" x2="277.6436" y1="112.7988" y2="112.7988"/><text fill="#000000" font-family="sans-serif" font-size="13" font-weight="bold" lengthAdjust="spacing" textLength="8.5757" x="57.1382" y="108.0566">1</text><text fill="#000000" font-family="sans-serif" font-size="13" lengthAdjust="spacing" textLength="165.3564" x="69.7139" y="108.0566">wants to deactivate a staff</text><polygon fill="#181818" points="482.1221,138.1094,492.1221,142.1094,482.1221,146.1094,486.1221,142.1094" style="stroke:#181818;stroke-width:1.0;"/><line style="stroke:#181818;stroke-width:1.0;" x1="293.6436" x2="488.1221" y1="142.1094" y2="142.1094"/><text fill="#000000" font-family="sans-serif" font-size="13" font-weight="bold" lengthAdjust="spacing" textLength="8.5757" x="300.6436" y="137.3672">2</text><text fill="#000000" font-family="sans-serif" font-size="13" lengthAdjust="spacing" textLength="63.8193" x="313.2192" y="137.3672">GET /staff</text><path d="M304,155.1094 L304,180.1094 L553,180.1094 L553,165.1094 L543,155.1094 L304,155.1094 " fill="#FEFFDD" style="stroke:#181818;stroke-width:0.5;"/><path d="M543,155.1094 L543,165.1094 L553,165.1094 L543,155.1094 " fill="#FEFFDD" style="stroke:#181818;stroke-width:0.5;"/><text fill="#000000" font-family="sans-serif" font-size="13" lengthAdjust="spacing" textLength="228.979" x="310" y="172.6777">Process documented on use case 21</text><polygon fill="#181818" points="304.6436,202.7305,294.6436,206.7305,304.6436,210.7305,300.6436,206.7305" style="stroke:#181818;stroke-width:1.0;"/><line style="stroke:#181818;stroke-width:1.0;stroke-dasharray:2.0,2.0;" x1="298.6436" x2="498.1221" y1="206.7305" y2="206.7305"/><text fill="#000000" font-family="sans-serif" font-size="13" font-weight="bold" lengthAdjust="spacing" textLength="8.5757" x="310.6436" y="201.9883">3</text><text fill="#000000" font-family="sans-serif" font-size="13" lengthAdjust="spacing" textLength="137.0269" x="323.2192" y="201.9883">return List&lt;StaffDto&gt;</text><polygon fill="#181818" points="61.1382,232.041,51.1382,236.041,61.1382,240.041,57.1382,236.041" style="stroke:#181818;stroke-width:1.0;"/><line style="stroke:#181818;stroke-width:1.0;stroke-dasharray:2.0,2.0;" x1="55.1382" x2="287.6436" y1="236.041" y2="236.041"/><text fill="#000000" font-family="sans-serif" font-size="13" font-weight="bold" lengthAdjust="spacing" textLength="8.5757" x="67.1382" y="231.2988">4</text><text fill="#000000" font-family="sans-serif" font-size="13" lengthAdjust="spacing" textLength="111.6616" x="79.7139" y="231.2988">shows list of staff</text><polygon fill="#181818" points="271.6436,261.3516,281.6436,265.3516,271.6436,269.3516,275.6436,265.3516" style="stroke:#181818;stroke-width:1.0;"/><line style="stroke:#181818;stroke-width:1.0;" x1="50.1382" x2="277.6436" y1="265.3516" y2="265.3516"/><text fill="#000000" font-family="sans-serif" font-size="13" font-weight="bold" lengthAdjust="spacing" textLength="8.5757" x="57.1382" y="260.6094">5</text><text fill="#000000" font-family="sans-serif" font-size="13" lengthAdjust="spacing" textLength="154.3813" x="69.7139" y="260.6094">selects a staff to remove</text><path d="M10,280.3516 L72.1387,280.3516 L72.1387,287.6621 L62.1387,297.6621 L10,297.6621 L10,280.3516 " fill="#EEEEEE" style="stroke:#000000;stroke-width:1.5;"/><rect fill="none" height="195.1738" style="stroke:#000000;stroke-width:1.5;" width="534.2349" x="10" y="280.3516"/><text fill="#000000" font-family="sans-serif" font-size="13" font-weight="bold" lengthAdjust="spacing" textLength="17.1387" x="25" y="293.9199">alt</text><polygon fill="#181818" points="482.1221,314.9727,492.1221,318.9727,482.1221,322.9727,486.1221,318.9727" style="stroke:#181818;stroke-width:1.0;"/><line style="stroke:#181818;stroke-width:1.0;" x1="293.6436" x2="488.1221" y1="318.9727" y2="318.9727"/><text fill="#000000" font-family="sans-serif" font-size="13" font-weight="bold" lengthAdjust="spacing" textLength="8.5757" x="300.6436" y="314.2305">6</text><text fill="#000000" font-family="sans-serif" font-size="13" lengthAdjust="spacing" textLength="145.8184" x="313.2192" y="314.2305">DEACTIVATE /staff/(id)</text><polygon fill="#181818" points="304.6436,344.2832,294.6436,348.2832,304.6436,352.2832,300.6436,348.2832" style="stroke:#181818;stroke-width:1.0;"/><line style="stroke:#181818;stroke-width:1.0;stroke-dasharray:2.0,2.0;" x1="298.6436" x2="498.1221" y1="348.2832" y2="348.2832"/><text fill="#000000" font-family="sans-serif" font-size="13" font-weight="bold" lengthAdjust="spacing" textLength="8.5757" x="310.6436" y="343.541">7</text><text fill="#000000" font-family="sans-serif" font-size="13" lengthAdjust="spacing" textLength="156.1968" x="323.2192" y="343.541">return operation success</text><polygon fill="#181818" points="61.1382,373.5938,51.1382,377.5938,61.1382,381.5938,57.1382,377.5938" style="stroke:#181818;stroke-width:1.0;"/><line style="stroke:#181818;stroke-width:1.0;stroke-dasharray:2.0,2.0;" x1="55.1382" x2="282.6436" y1="377.5938" y2="377.5938"/><text fill="#000000" font-family="sans-serif" font-size="13" font-weight="bold" lengthAdjust="spacing" textLength="8.5757" x="67.1382" y="372.8516">8</text><text fill="#000000" font-family="sans-serif" font-size="13" lengthAdjust="spacing" textLength="113.2041" x="79.7139" y="372.8516">operation success</text><line style="stroke:#000000;stroke-width:1.0;stroke-dasharray:2.0,2.0;" x1="10" x2="544.2349" y1="386.5938" y2="386.5938"/><polygon fill="#181818" points="482.1221,404.9043,492.1221,408.9043,482.1221,412.9043,486.1221,408.9043" style="stroke:#181818;stroke-width:1.0;"/><line style="stroke:#181818;stroke-width:1.0;" x1="293.6436" x2="488.1221" y1="408.9043" y2="408.9043"/><text fill="#000000" font-family="sans-serif" font-size="13" font-weight="bold" lengthAdjust="spacing" textLength="8.5757" x="300.6436" y="404.1621">9</text><text fill="#000000" font-family="sans-serif" font-size="13" lengthAdjust="spacing" textLength="145.8184" x="313.2192" y="404.1621">DEACTIVATE /staff/(id)</text><polygon fill="#181818" points="304.6436,434.2148,294.6436,438.2148,304.6436,442.2148,300.6436,438.2148" style="stroke:#181818;stroke-width:1.0;"/><line style="stroke:#181818;stroke-width:1.0;stroke-dasharray:2.0,2.0;" x1="298.6436" x2="498.1221" y1="438.2148" y2="438.2148"/><text fill="#000000" font-family="sans-serif" font-size="13" font-weight="bold" lengthAdjust="spacing" textLength="17.1514" x="310.6436" y="433.4727">10</text><text fill="#000000" font-family="sans-serif" font-size="13" lengthAdjust="spacing" textLength="155.3271" x="331.7949" y="433.4727">error:  couldn't find staff</text><polygon fill="#181818" points="61.1382,463.5254,51.1382,467.5254,61.1382,471.5254,57.1382,467.5254" style="stroke:#181818;stroke-width:1.0;"/><line style="stroke:#181818;stroke-width:1.0;stroke-dasharray:2.0,2.0;" x1="55.1382" x2="287.6436" y1="467.5254" y2="467.5254"/><text fill="#000000" font-family="sans-serif" font-size="13" font-weight="bold" lengthAdjust="spacing" textLength="17.1514" x="67.1382" y="462.7832">11</text><text fill="#000000" font-family="sans-serif" font-size="13" lengthAdjust="spacing" textLength="188.354" x="88.2896" y="462.7832">informs error with suggestion</text><!--SRC=[bLD1JiCm4Bpd5QjUW0Egu1YXIWrD4H87H4llnjcq5ectiZVjzrcRDcdQW207ArdFZ6ScYMgOR5D_e4iIfPaSZAP5RUm8b8VtHVwM95lbs6YpLPPXD7TaERT5t9_d_SrCwS_ZNfP7GRDJZ0SXa2lSmUr4g932NbWUcA305gh0iofBYEXsAYU5vxW8LGIo8F2KBs4SyNruTWAt98CAImOgOR6ACu1NHngzXu9qKwDbB80iD1v1Ardkxm8ERH7fdPYSUdjqxv0RP-75U7vO10ypfab4dSJ9pemBELQGWj_GtaCbx62i2t52bjINfNciK4jjnwAaFeSrxV2NobJ55ztDykdZydarNUQ72iVNfhZvkSU1wBH5fzX8SRxHeSu_fay7c1qGAu__SJlak1KxTuxEaKi1D3LLOQyOIYClkMj_E41FhXV4s99SxRzrOMzu8udMQ_GXt93Y_4mnV6DjzkG46F-PBm00]--></g></svg>