<svg xmlns="http://www.w3.org/2000/svg" xmlns:xlink="http://www.w3.org/1999/xlink" contentStyleType="text/css" height="375px" preserveAspectRatio="none" style="width:376px;height:375px;background:#FFFFFF;" version="1.1" viewBox="0 0 376 375" width="376px" zoomAndPan="magnify"><defs/><g><rect fill="#FFFFFF" height="192.8184" style="stroke:#181818;stroke-width:1.0;" width="10" x="40.1382" y="91.4883"/><rect fill="#FFFFFF" height="29.3105" style="stroke:#181818;stroke-width:1.0;" width="10" x="302.8662" y="112.7988"/><rect fill="#FFFFFF" height="112.8867" style="stroke:#181818;stroke-width:1.0;" width="10" x="302.8662" y="171.4199"/><rect fill="none" height="90.8867" style="stroke:#000000;stroke-width:1.5;" width="359.2793" x="10" y="186.4199"/><line style="stroke:#181818;stroke-width:0.5;stroke-dasharray:5.0,5.0;" x1="45" x2="45" y1="81.4883" y2="294.3066"/><line style="stroke:#181818;stroke-width:0.5;stroke-dasharray:5.0,5.0;" x1="307.4531" x2="307.4531" y1="81.4883" y2="294.3066"/><text fill="#000000" font-family="sans-serif" font-size="14" lengthAdjust="spacing" textLength="44.2764" x="20" y="78.5352">Admin</text><ellipse cx="45.1382" cy="13.5" fill="#E2E2F0" rx="8" ry="8" style="stroke:#181818;stroke-width:0.5;"/><path d="M45.1382,21.5 L45.1382,48.5 M32.1382,29.5 L58.1382,29.5 M45.1382,48.5 L32.1382,63.5 M45.1382,48.5 L58.1382,63.5 " fill="none" style="stroke:#181818;stroke-width:0.5;"/><text fill="#000000" font-family="sans-serif" font-size="14" lengthAdjust="spacing" textLength="44.2764" x="20" y="306.8418">Admin</text><ellipse cx="45.1382" cy="318.2949" fill="#E2E2F0" rx="8" ry="8" style="stroke:#181818;stroke-width:0.5;"/><path d="M45.1382,326.2949 L45.1382,353.2949 M32.1382,334.2949 L58.1382,334.2949 M45.1382,353.2949 L32.1382,368.2949 M45.1382,353.2949 L58.1382,368.2949 " fill="none" style="stroke:#181818;stroke-width:0.5;"/><rect fill="#E2E2F0" height="46.9766" rx="2.5" ry="2.5" style="stroke:#181818;stroke-width:0.5;" width="102.8262" x="256.4531" y="33.5117"/><text fill="#000000" font-family="sans-serif" font-size="14" lengthAdjust="spacing" textLength="62.7676" x="276.4824" y="54.0469">&#171;System&#187;</text><text fill="#000000" font-family="sans-serif" font-size="14" lengthAdjust="spacing" textLength="84.3965" x="267.8828" y="70.5352">SurgicalSync</text><rect fill="#E2E2F0" height="46.9766" rx="2.5" ry="2.5" style="stroke:#181818;stroke-width:0.5;" width="102.8262" x="256.4531" y="293.3066"/><text fill="#000000" font-family="sans-serif" font-size="14" lengthAdjust="spacing" textLength="62.7676" x="276.4824" y="313.8418">&#171;System&#187;</text><text fill="#000000" font-family="sans-serif" font-size="14" lengthAdjust="spacing" textLength="84.3965" x="267.8828" y="330.3301">SurgicalSync</text><rect fill="#FFFFFF" height="192.8184" style="stroke:#181818;stroke-width:1.0;" width="10" x="40.1382" y="91.4883"/><rect fill="#FFFFFF" height="29.3105" style="stroke:#181818;stroke-width:1.0;" width="10" x="302.8662" y="112.7988"/><rect fill="#FFFFFF" height="112.8867" style="stroke:#181818;stroke-width:1.0;" width="10" x="302.8662" y="171.4199"/><polygon fill="#181818" points="290.8662,108.7988,300.8662,112.7988,290.8662,116.7988,294.8662,112.7988" style="stroke:#181818;stroke-width:1.0;"/><line style="stroke:#181818;stroke-width:1.0;" x1="50.1382" x2="296.8662" y1="112.7988" y2="112.7988"/><text fill="#000000" font-family="sans-serif" font-size="13" font-weight="bold" lengthAdjust="spacing" textLength="8.5757" x="57.1382" y="108.0566">1</text><text fill="#000000" font-family="sans-serif" font-size="13" lengthAdjust="spacing" textLength="221.1523" x="69.7139" y="108.0566">wants to search for patient profiles</text><polygon fill="#181818" points="61.1382,138.1094,51.1382,142.1094,61.1382,146.1094,57.1382,142.1094" style="stroke:#181818;stroke-width:1.0;"/><line style="stroke:#181818;stroke-width:1.0;stroke-dasharray:2.0,2.0;" x1="55.1382" x2="306.8662" y1="142.1094" y2="142.1094"/><text fill="#000000" font-family="sans-serif" font-size="13" font-weight="bold" lengthAdjust="spacing" textLength="8.5757" x="67.1382" y="137.3672">2</text><text fill="#000000" font-family="sans-serif" font-size="13" lengthAdjust="spacing" textLength="114.5498" x="79.7139" y="137.3672">asks for patient id</text><polygon fill="#181818" points="290.8662,167.4199,300.8662,171.4199,290.8662,175.4199,294.8662,171.4199" style="stroke:#181818;stroke-width:1.0;"/><line style="stroke:#181818;stroke-width:1.0;" x1="50.1382" x2="296.8662" y1="171.4199" y2="171.4199"/><text fill="#000000" font-family="sans-serif" font-size="13" font-weight="bold" lengthAdjust="spacing" textLength="8.5757" x="57.1382" y="166.6777">3</text><text fill="#000000" font-family="sans-serif" font-size="13" lengthAdjust="spacing" textLength="118.3457" x="69.7139" y="166.6777">provides patient id</text><path d="M10,186.4199 L72.1387,186.4199 L72.1387,193.7305 L62.1387,203.7305 L10,203.7305 L10,186.4199 " fill="#EEEEEE" style="stroke:#000000;stroke-width:1.5;"/><rect fill="none" height="90.8867" style="stroke:#000000;stroke-width:1.5;" width="359.2793" x="10" y="186.4199"/><text fill="#000000" font-family="sans-serif" font-size="13" font-weight="bold" lengthAdjust="spacing" textLength="17.1387" x="25" y="199.9883">alt</text><text fill="#000000" font-family="sans-serif" font-size="11" font-weight="bold" lengthAdjust="spacing" textLength="167.0947" x="87.1387" y="199.0547">[Couldn't Find Patient Profile]</text><polygon fill="#181818" points="61.1382,221.041,51.1382,225.041,61.1382,229.041,57.1382,225.041" style="stroke:#181818;stroke-width:1.0;"/><line style="stroke:#181818;stroke-width:1.0;stroke-dasharray:2.0,2.0;" x1="55.1382" x2="301.8662" y1="225.041" y2="225.041"/><text fill="#000000" font-family="sans-serif" font-size="13" font-weight="bold" lengthAdjust="spacing" textLength="8.5757" x="67.1382" y="220.2988">4</text><text fill="#000000" font-family="sans-serif" font-size="13" lengthAdjust="spacing" textLength="188.354" x="79.7139" y="220.2988">informs error with suggestion</text><line style="stroke:#000000;stroke-width:1.0;stroke-dasharray:2.0,2.0;" x1="10" x2="369.2793" y1="234.041" y2="234.041"/><text fill="#000000" font-family="sans-serif" font-size="11" font-weight="bold" lengthAdjust="spacing" textLength="126.79" x="15" y="244.6758">[Patient Profile Found]</text><polygon fill="#181818" points="61.1382,265.3066,51.1382,269.3066,61.1382,273.3066,57.1382,269.3066" style="stroke:#181818;stroke-width:1.0;"/><line style="stroke:#181818;stroke-width:1.0;stroke-dasharray:2.0,2.0;" x1="55.1382" x2="301.8662" y1="269.3066" y2="269.3066"/><text fill="#000000" font-family="sans-serif" font-size="13" font-weight="bold" lengthAdjust="spacing" textLength="8.5757" x="67.1382" y="264.5645">5</text><text fill="#000000" font-family="sans-serif" font-size="13" lengthAdjust="spacing" textLength="132.7295" x="79.7139" y="264.5645">shows patient profile</text><!--SRC=[RP71QeGm48RlFiNWfITVG4GePVTMM9hjeT1BQh8wL1F9J5RsxHkZJLUxEOHa-EVx_qoaPslyyALTbic6hOFyMGreSf04x-BmbetICJOuIiEGLvMu4UkXhZyD2EzQR6GlRgQ9Ul4XpeVN2CAhPBq0CWXhFa5Hhv8Ife0ZO0kafMiwk0JdKJBgu38wUy5UKsnCh1K-r-8shwK6HG17WpAa-AOD35LKAxq39SZ3U2725PMcFMQV9YMHFSEBzRqoJmn7D0fEQ-TfUKrI9hkgA7wpb80cX1u8j7CX_8JS0VcsrSHepQOtNNHFUky2H-kDskZ_puWwEz5-sd_Ok_x7erl-uAuySty0]--></g></svg>