<svg xmlns="http://www.w3.org/2000/svg" xmlns:xlink="http://www.w3.org/1999/xlink" contentStyleType="text/css" height="878px" preserveAspectRatio="none" style="width:1814px;height:878px;background:#FFFFFF;" version="1.1" viewBox="0 0 1814 878" width="1814px" zoomAndPan="magnify"><title>BackEnd Process View</title><defs/><g><text fill="#000000" font-family="sans-serif" font-size="14" font-weight="bold" lengthAdjust="spacing" textLength="159.4619" x="828.5313" y="28.5352">BackEnd Process View</text><rect fill="#FFFFFF" height="675.7871" style="stroke:#181818;stroke-width:1.0;" width="10" x="52.4233" y="114.9766"/><rect fill="#FFFFFF" height="638.4766" style="stroke:#181818;stroke-width:1.0;" width="10" x="424.2275" y="136.2871"/><rect fill="#FFFFFF" height="579.8555" style="stroke:#181818;stroke-width:1.0;" width="10" x="800.145" y="165.5977"/><rect fill="#FFFFFF" height="29.3105" style="stroke:#181818;stroke-width:1.0;" width="10" x="1051.1533" y="378.7715"/><rect fill="#FFFFFF" height="87.9316" style="stroke:#181818;stroke-width:1.0;" width="10" x="1122.8682" y="437.3926"/><rect fill="#FFFFFF" height="29.3105" style="stroke:#181818;stroke-width:1.0;" width="10" x="1270.7969" y="466.7031"/><rect fill="#FFFFFF" height="87.9316" style="stroke:#181818;stroke-width:1.0;" width="10" x="1363.0059" y="194.9082"/><rect fill="#FFFFFF" height="87.9316" style="stroke:#181818;stroke-width:1.0;" width="10" x="1363.0059" y="554.6348"/><rect fill="#FFFFFF" height="29.3105" style="stroke:#181818;stroke-width:1.0;" width="10" x="1743.0366" y="224.2188"/><rect fill="#FFFFFF" height="29.3105" style="stroke:#181818;stroke-width:1.0;" width="10" x="1743.0366" y="583.9453"/><rect fill="none" height="442.6133" style="stroke:#000000;stroke-width:1.5;" width="1797.5244" x="10" y="340.1504"/><line style="stroke:#181818;stroke-width:0.5;stroke-dasharray:5.0,5.0;" x1="57" x2="57" y1="104.9766" y2="799.7637"/><line style="stroke:#181818;stroke-width:0.5;stroke-dasharray:5.0,5.0;" x1="428.5786" x2="428.5786" y1="104.9766" y2="799.7637"/><line style="stroke:#181818;stroke-width:0.5;stroke-dasharray:5.0,5.0;" x1="804.9106" x2="804.9106" y1="104.9766" y2="799.7637"/><line style="stroke:#181818;stroke-width:0.5;stroke-dasharray:5.0,5.0;" x1="1055.4775" x2="1055.4775" y1="104.9766" y2="799.7637"/><line style="stroke:#181818;stroke-width:0.5;stroke-dasharray:5.0,5.0;" x1="1127.8291" x2="1127.8291" y1="104.9766" y2="799.7637"/><line style="stroke:#181818;stroke-width:0.5;stroke-dasharray:5.0,5.0;" x1="1275.4854" x2="1275.4854" y1="104.9766" y2="799.7637"/><line style="stroke:#181818;stroke-width:0.5;stroke-dasharray:5.0,5.0;" x1="1367.1084" x2="1367.1084" y1="104.9766" y2="799.7637"/><line style="stroke:#181818;stroke-width:0.5;stroke-dasharray:5.0,5.0;" x1="1747.5488" x2="1747.5488" y1="104.9766" y2="799.7637"/><rect fill="#E2E2F0" height="30.4883" rx="2.5" ry="2.5" style="stroke:#181818;stroke-width:0.5;" width="74.8467" x="20" y="73.4883"/><text fill="#000000" font-family="sans-serif" font-size="14" lengthAdjust="spacing" textLength="60.8467" x="27" y="94.0234">FrontEnd</text><rect fill="#E2E2F0" height="30.4883" rx="2.5" ry="2.5" style="stroke:#181818;stroke-width:0.5;" width="74.8467" x="20" y="798.7637"/><text fill="#000000" font-family="sans-serif" font-size="14" lengthAdjust="spacing" textLength="60.8467" x="27" y="819.2988">FrontEnd</text><rect fill="#E2E2F0" height="30.4883" rx="2.5" ry="2.5" style="stroke:#181818;stroke-width:0.5;" width="89.2979" x="384.5786" y="73.4883"/><text fill="#000000" font-family="sans-serif" font-size="14" lengthAdjust="spacing" textLength="75.2979" x="391.5786" y="94.0234">Controllers</text><rect fill="#E2E2F0" height="30.4883" rx="2.5" ry="2.5" style="stroke:#181818;stroke-width:0.5;" width="89.2979" x="384.5786" y="798.7637"/><text fill="#000000" font-family="sans-serif" font-size="14" lengthAdjust="spacing" textLength="75.2979" x="391.5786" y="819.2988">Controllers</text><rect fill="#E2E2F0" height="30.4883" rx="2.5" ry="2.5" style="stroke:#181818;stroke-width:0.5;" width="68.4688" x="770.9106" y="73.4883"/><text fill="#000000" font-family="sans-serif" font-size="14" lengthAdjust="spacing" textLength="54.4688" x="777.9106" y="94.0234">Services</text><rect fill="#E2E2F0" height="30.4883" rx="2.5" ry="2.5" style="stroke:#181818;stroke-width:0.5;" width="68.4688" x="770.9106" y="798.7637"/><text fill="#000000" font-family="sans-serif" font-size="14" lengthAdjust="spacing" textLength="54.4688" x="777.9106" y="819.2988">Services</text><rect fill="#E2E2F0" height="30.4883" rx="2.5" ry="2.5" style="stroke:#181818;stroke-width:0.5;" width="51.3516" x="1030.4775" y="73.4883"/><text fill="#000000" font-family="sans-serif" font-size="14" lengthAdjust="spacing" textLength="37.3516" x="1037.4775" y="94.0234">DTOs</text><rect fill="#E2E2F0" height="30.4883" rx="2.5" ry="2.5" style="stroke:#181818;stroke-width:0.5;" width="51.3516" x="1030.4775" y="798.7637"/><text fill="#000000" font-family="sans-serif" font-size="14" lengthAdjust="spacing" textLength="37.3516" x="1037.4775" y="819.2988">DTOs</text><rect fill="#E2E2F0" height="30.4883" rx="2.5" ry="2.5" style="stroke:#181818;stroke-width:0.5;" width="72.0781" x="1091.8291" y="73.4883"/><text fill="#000000" font-family="sans-serif" font-size="14" lengthAdjust="spacing" textLength="58.0781" x="1098.8291" y="94.0234">Mappers</text><rect fill="#E2E2F0" height="30.4883" rx="2.5" ry="2.5" style="stroke:#181818;stroke-width:0.5;" width="72.0781" x="1091.8291" y="798.7637"/><text fill="#000000" font-family="sans-serif" font-size="14" lengthAdjust="spacing" textLength="58.0781" x="1098.8291" y="819.2988">Mappers</text><rect fill="#E2E2F0" height="30.4883" rx="2.5" ry="2.5" style="stroke:#181818;stroke-width:0.5;" width="66.623" x="1242.4854" y="73.4883"/><text fill="#000000" font-family="sans-serif" font-size="14" lengthAdjust="spacing" textLength="52.623" x="1249.4854" y="94.0234">Domain</text><rect fill="#E2E2F0" height="30.4883" rx="2.5" ry="2.5" style="stroke:#181818;stroke-width:0.5;" width="66.623" x="1242.4854" y="798.7637"/><text fill="#000000" font-family="sans-serif" font-size="14" lengthAdjust="spacing" textLength="52.623" x="1249.4854" y="819.2988">Domain</text><rect fill="#E2E2F0" height="30.4883" rx="2.5" ry="2.5" style="stroke:#181818;stroke-width:0.5;" width="97.7949" x="1319.1084" y="73.4883"/><text fill="#000000" font-family="sans-serif" font-size="14" lengthAdjust="spacing" textLength="83.7949" x="1326.1084" y="94.0234">Repositories</text><rect fill="#E2E2F0" height="30.4883" rx="2.5" ry="2.5" style="stroke:#181818;stroke-width:0.5;" width="97.7949" x="1319.1084" y="798.7637"/><text fill="#000000" font-family="sans-serif" font-size="14" lengthAdjust="spacing" textLength="83.7949" x="1326.1084" y="819.2988">Repositories</text><text fill="#000000" font-family="sans-serif" font-size="14" lengthAdjust="spacing" textLength="92.9756" x="1698.5488" y="102.0234">SQL Database</text><path d="M1730.0366,52.4883 C1730.0366,42.4883 1748.0366,42.4883 1748.0366,42.4883 C1748.0366,42.4883 1766.0366,42.4883 1766.0366,52.4883 L1766.0366,78.4883 C1766.0366,88.4883 1748.0366,88.4883 1748.0366,88.4883 C1748.0366,88.4883 1730.0366,88.4883 1730.0366,78.4883 L1730.0366,52.4883 " fill="#E2E2F0" style="stroke:#181818;stroke-width:1.5;"/><path d="M1730.0366,52.4883 C1730.0366,62.4883 1748.0366,62.4883 1748.0366,62.4883 C1748.0366,62.4883 1766.0366,62.4883 1766.0366,52.4883 " fill="none" style="stroke:#181818;stroke-width:1.5;"/><text fill="#000000" font-family="sans-serif" font-size="14" lengthAdjust="spacing" textLength="92.9756" x="1698.5488" y="812.2988">SQL Database</text><path d="M1730.0366,825.252 C1730.0366,815.252 1748.0366,815.252 1748.0366,815.252 C1748.0366,815.252 1766.0366,815.252 1766.0366,825.252 L1766.0366,851.252 C1766.0366,861.252 1748.0366,861.252 1748.0366,861.252 C1748.0366,861.252 1730.0366,861.252 1730.0366,851.252 L1730.0366,825.252 " fill="#E2E2F0" style="stroke:#181818;stroke-width:1.5;"/><path d="M1730.0366,825.252 C1730.0366,835.252 1748.0366,835.252 1748.0366,835.252 C1748.0366,835.252 1766.0366,835.252 1766.0366,825.252 " fill="none" style="stroke:#181818;stroke-width:1.5;"/><rect fill="#FFFFFF" height="675.7871" style="stroke:#181818;stroke-width:1.0;" width="10" x="52.4233" y="114.9766"/><rect fill="#FFFFFF" height="638.4766" style="stroke:#181818;stroke-width:1.0;" width="10" x="424.2275" y="136.2871"/><rect fill="#FFFFFF" height="579.8555" style="stroke:#181818;stroke-width:1.0;" width="10" x="800.145" y="165.5977"/><rect fill="#FFFFFF" height="29.3105" style="stroke:#181818;stroke-width:1.0;" width="10" x="1051.1533" y="378.7715"/><rect fill="#FFFFFF" height="87.9316" style="stroke:#181818;stroke-width:1.0;" width="10" x="1122.8682" y="437.3926"/><rect fill="#FFFFFF" height="29.3105" style="stroke:#181818;stroke-width:1.0;" width="10" x="1270.7969" y="466.7031"/><rect fill="#FFFFFF" height="87.9316" style="stroke:#181818;stroke-width:1.0;" width="10" x="1363.0059" y="194.9082"/><rect fill="#FFFFFF" height="87.9316" style="stroke:#181818;stroke-width:1.0;" width="10" x="1363.0059" y="554.6348"/><rect fill="#FFFFFF" height="29.3105" style="stroke:#181818;stroke-width:1.0;" width="10" x="1743.0366" y="224.2188"/><rect fill="#FFFFFF" height="29.3105" style="stroke:#181818;stroke-width:1.0;" width="10" x="1743.0366" y="583.9453"/><polygon fill="#181818" points="412.2275,132.2871,422.2275,136.2871,412.2275,140.2871,416.2275,136.2871" style="stroke:#181818;stroke-width:1.0;"/><line style="stroke:#181818;stroke-width:1.0;" x1="62.4233" x2="418.2275" y1="136.2871" y2="136.2871"/><text fill="#000000" font-family="sans-serif" font-size="13" font-weight="bold" lengthAdjust="spacing" textLength="8.5757" x="69.4233" y="131.5449">1</text><text fill="#000000" font-family="sans-serif" font-size="13" lengthAdjust="spacing" textLength="227.9634" x="81.999" y="131.5449">POST /api/Patients (with given data)</text><polygon fill="#181818" points="788.145,161.5977,798.145,165.5977,788.145,169.5977,792.145,165.5977" style="stroke:#181818;stroke-width:1.0;"/><line style="stroke:#181818;stroke-width:1.0;" x1="434.2275" x2="794.145" y1="165.5977" y2="165.5977"/><text fill="#000000" font-family="sans-serif" font-size="13" font-weight="bold" lengthAdjust="spacing" textLength="8.5757" x="441.2275" y="160.8555">2</text><text fill="#000000" font-family="sans-serif" font-size="13" lengthAdjust="spacing" textLength="120.5103" x="453.8032" y="160.8555">Create(PatientDTO)</text><polygon fill="#181818" points="1351.0059,190.9082,1361.0059,194.9082,1351.0059,198.9082,1355.0059,194.9082" style="stroke:#181818;stroke-width:1.0;"/><line style="stroke:#181818;stroke-width:1.0;" x1="810.145" x2="1357.0059" y1="194.9082" y2="194.9082"/><text fill="#000000" font-family="sans-serif" font-size="13" font-weight="bold" lengthAdjust="spacing" textLength="8.5757" x="817.145" y="190.166">3</text><text fill="#000000" font-family="sans-serif" font-size="13" lengthAdjust="spacing" textLength="99.4932" x="829.7207" y="190.166">listOfUserData()</text><polygon fill="#181818" points="1731.0366,220.2188,1741.0366,224.2188,1731.0366,228.2188,1735.0366,224.2188" style="stroke:#181818;stroke-width:1.0;"/><line style="stroke:#181818;stroke-width:1.0;" x1="1373.0059" x2="1737.0366" y1="224.2188" y2="224.2188"/><text fill="#000000" font-family="sans-serif" font-size="13" font-weight="bold" lengthAdjust="spacing" textLength="8.5757" x="1380.0059" y="219.4766">4</text><text fill="#000000" font-family="sans-serif" font-size="13" lengthAdjust="spacing" textLength="70.4146" x="1392.5815" y="219.4766">GET /Users</text><polygon fill="#181818" points="1384.0059,249.5293,1374.0059,253.5293,1384.0059,257.5293,1380.0059,253.5293" style="stroke:#181818;stroke-width:1.0;"/><line style="stroke:#181818;stroke-width:1.0;stroke-dasharray:2.0,2.0;" x1="1378.0059" x2="1747.0366" y1="253.5293" y2="253.5293"/><text fill="#000000" font-family="sans-serif" font-size="13" font-weight="bold" lengthAdjust="spacing" textLength="8.5757" x="1390.0059" y="248.7871">5</text><text fill="#000000" font-family="sans-serif" font-size="13" lengthAdjust="spacing" textLength="140.6577" x="1402.5815" y="248.7871">returns listOfUserData</text><polygon fill="#181818" points="821.145,278.8398,811.145,282.8398,821.145,286.8398,817.145,282.8398" style="stroke:#181818;stroke-width:1.0;"/><line style="stroke:#181818;stroke-width:1.0;stroke-dasharray:2.0,2.0;" x1="815.145" x2="1367.0059" y1="282.8398" y2="282.8398"/><text fill="#000000" font-family="sans-serif" font-size="13" font-weight="bold" lengthAdjust="spacing" textLength="8.5757" x="827.145" y="278.0977">6</text><text fill="#000000" font-family="sans-serif" font-size="13" lengthAdjust="spacing" textLength="140.6577" x="839.7207" y="278.0977">returns listOfUserData</text><line style="stroke:#181818;stroke-width:1.0;" x1="810.145" x2="852.145" y1="312.1504" y2="312.1504"/><line style="stroke:#181818;stroke-width:1.0;" x1="852.145" x2="852.145" y1="312.1504" y2="325.1504"/><line style="stroke:#181818;stroke-width:1.0;" x1="811.145" x2="852.145" y1="325.1504" y2="325.1504"/><polygon fill="#181818" points="821.145,321.1504,811.145,325.1504,821.145,329.1504,817.145,325.1504" style="stroke:#181818;stroke-width:1.0;"/><text fill="#000000" font-family="sans-serif" font-size="13" font-weight="bold" lengthAdjust="spacing" textLength="8.5757" x="817.145" y="307.4082">7</text><text fill="#000000" font-family="sans-serif" font-size="13" lengthAdjust="spacing" textLength="204.4326" x="829.7207" y="307.4082">verifyData (email,phoneNumber)</text><path d="M10,340.1504 L72.1387,340.1504 L72.1387,347.4609 L62.1387,357.4609 L10,357.4609 L10,340.1504 " fill="#EEEEEE" style="stroke:#000000;stroke-width:1.5;"/><rect fill="none" height="442.6133" style="stroke:#000000;stroke-width:1.5;" width="1797.5244" x="10" y="340.1504"/><text fill="#000000" font-family="sans-serif" font-size="13" font-weight="bold" lengthAdjust="spacing" textLength="17.1387" x="25" y="353.7188">alt</text><text fill="#000000" font-family="sans-serif" font-size="11" font-weight="bold" lengthAdjust="spacing" textLength="213.5654" x="87.1387" y="352.7852">[Email and Phone number are unique]</text><polygon fill="#181818" points="1039.1533,374.7715,1049.1533,378.7715,1039.1533,382.7715,1043.1533,378.7715" style="stroke:#181818;stroke-width:1.0;"/><line style="stroke:#181818;stroke-width:1.0;" x1="810.145" x2="1045.1533" y1="378.7715" y2="378.7715"/><text fill="#000000" font-family="sans-serif" font-size="13" font-weight="bold" lengthAdjust="spacing" textLength="8.5757" x="817.145" y="374.0293">8</text><text fill="#000000" font-family="sans-serif" font-size="13" lengthAdjust="spacing" textLength="120.5103" x="829.7207" y="374.0293">Create(PatientDTO)</text><polygon fill="#181818" points="821.145,404.082,811.145,408.082,821.145,412.082,817.145,408.082" style="stroke:#181818;stroke-width:1.0;"/><line style="stroke:#181818;stroke-width:1.0;stroke-dasharray:2.0,2.0;" x1="815.145" x2="1055.1533" y1="408.082" y2="408.082"/><text fill="#000000" font-family="sans-serif" font-size="13" font-weight="bold" lengthAdjust="spacing" textLength="8.5757" x="827.145" y="403.3398">9</text><text fill="#000000" font-family="sans-serif" font-size="13" lengthAdjust="spacing" textLength="120.834" x="839.7207" y="403.3398">returns PatientDTO</text><polygon fill="#181818" points="1110.8682,433.3926,1120.8682,437.3926,1110.8682,441.3926,1114.8682,437.3926" style="stroke:#181818;stroke-width:1.0;"/><line style="stroke:#181818;stroke-width:1.0;" x1="810.145" x2="1116.8682" y1="437.3926" y2="437.3926"/><text fill="#000000" font-family="sans-serif" font-size="13" font-weight="bold" lengthAdjust="spacing" textLength="17.1514" x="817.145" y="432.6504">10</text><text fill="#000000" font-family="sans-serif" font-size="13" lengthAdjust="spacing" textLength="144.7393" x="838.2964" y="432.6504">ToDomain(PatientDTO)</text><polygon fill="#181818" points="1258.7969,462.7031,1268.7969,466.7031,1258.7969,470.7031,1262.7969,466.7031" style="stroke:#181818;stroke-width:1.0;"/><line style="stroke:#181818;stroke-width:1.0;" x1="1132.8682" x2="1264.7969" y1="466.7031" y2="466.7031"/><text fill="#000000" font-family="sans-serif" font-size="13" font-weight="bold" lengthAdjust="spacing" textLength="17.1514" x="1139.8682" y="461.9609">11</text><text fill="#000000" font-family="sans-serif" font-size="13" lengthAdjust="spacing" textLength="92.4536" x="1161.0195" y="461.9609">Create(Patient)</text><polygon fill="#181818" points="1143.8682,492.0137,1133.8682,496.0137,1143.8682,500.0137,1139.8682,496.0137" style="stroke:#181818;stroke-width:1.0;"/><line style="stroke:#181818;stroke-width:1.0;stroke-dasharray:2.0,2.0;" x1="1137.8682" x2="1274.7969" y1="496.0137" y2="496.0137"/><text fill="#000000" font-family="sans-serif" font-size="13" font-weight="bold" lengthAdjust="spacing" textLength="17.1514" x="1149.8682" y="491.2715">12</text><text fill="#000000" font-family="sans-serif" font-size="13" lengthAdjust="spacing" textLength="92.7773" x="1171.0195" y="491.2715">returns Patient</text><polygon fill="#181818" points="821.145,521.3242,811.145,525.3242,821.145,529.3242,817.145,525.3242" style="stroke:#181818;stroke-width:1.0;"/><line style="stroke:#181818;stroke-width:1.0;stroke-dasharray:2.0,2.0;" x1="815.145" x2="1126.8682" y1="525.3242" y2="525.3242"/><text fill="#000000" font-family="sans-serif" font-size="13" font-weight="bold" lengthAdjust="spacing" textLength="17.1514" x="827.145" y="520.582">13</text><text fill="#000000" font-family="sans-serif" font-size="13" lengthAdjust="spacing" textLength="92.7773" x="848.2964" y="520.582">returns Patient</text><polygon fill="#181818" points="1351.0059,550.6348,1361.0059,554.6348,1351.0059,558.6348,1355.0059,554.6348" style="stroke:#181818;stroke-width:1.0;"/><line style="stroke:#181818;stroke-width:1.0;" x1="810.145" x2="1357.0059" y1="554.6348" y2="554.6348"/><text fill="#000000" font-family="sans-serif" font-size="13" font-weight="bold" lengthAdjust="spacing" textLength="17.1514" x="817.145" y="549.8926">14</text><text fill="#000000" font-family="sans-serif" font-size="13" lengthAdjust="spacing" textLength="114.061" x="838.2964" y="549.8926">AddAsync(Patient)</text><polygon fill="#181818" points="1731.0366,579.9453,1741.0366,583.9453,1731.0366,587.9453,1735.0366,583.9453" style="stroke:#181818;stroke-width:1.0;"/><line style="stroke:#181818;stroke-width:1.0;" x1="1373.0059" x2="1737.0366" y1="583.9453" y2="583.9453"/><text fill="#000000" font-family="sans-serif" font-size="13" font-weight="bold" lengthAdjust="spacing" textLength="17.1514" x="1380.0059" y="579.2031">15</text><text fill="#000000" font-family="sans-serif" font-size="13" lengthAdjust="spacing" textLength="93.2217" x="1401.1572" y="579.2031">POST /Patients</text><polygon fill="#181818" points="1384.0059,609.2559,1374.0059,613.2559,1384.0059,617.2559,1380.0059,613.2559" style="stroke:#181818;stroke-width:1.0;"/><line style="stroke:#181818;stroke-width:1.0;stroke-dasharray:2.0,2.0;" x1="1378.0059" x2="1747.0366" y1="613.2559" y2="613.2559"/><text fill="#000000" font-family="sans-serif" font-size="13" font-weight="bold" lengthAdjust="spacing" textLength="17.1514" x="1390.0059" y="608.5137">16</text><text fill="#000000" font-family="sans-serif" font-size="13" lengthAdjust="spacing" textLength="324.8794" x="1411.1572" y="608.5137">success : created patient profile (returns patient ID)</text><polygon fill="#181818" points="821.145,638.5664,811.145,642.5664,821.145,646.5664,817.145,642.5664" style="stroke:#181818;stroke-width:1.0;"/><line style="stroke:#181818;stroke-width:1.0;stroke-dasharray:2.0,2.0;" x1="815.145" x2="1367.0059" y1="642.5664" y2="642.5664"/><text fill="#000000" font-family="sans-serif" font-size="13" font-weight="bold" lengthAdjust="spacing" textLength="17.1514" x="827.145" y="637.8242">17</text><text fill="#000000" font-family="sans-serif" font-size="13" lengthAdjust="spacing" textLength="264.0308" x="848.2964" y="637.8242">created patient profile (returns patient ID)</text><polygon fill="#181818" points="445.2275,667.877,435.2275,671.877,445.2275,675.877,441.2275,671.877" style="stroke:#181818;stroke-width:1.0;"/><line style="stroke:#181818;stroke-width:1.0;stroke-dasharray:2.0,2.0;" x1="439.2275" x2="799.145" y1="671.877" y2="671.877"/><text fill="#000000" font-family="sans-serif" font-size="13" font-weight="bold" lengthAdjust="spacing" textLength="17.1514" x="451.2275" y="667.1348">18</text><text fill="#000000" font-family="sans-serif" font-size="13" lengthAdjust="spacing" textLength="320.7661" x="472.3789" y="667.1348">success: created patient profile (returns patient ID)</text><polygon fill="#181818" points="73.4233,697.1875,63.4233,701.1875,73.4233,705.1875,69.4233,701.1875" style="stroke:#181818;stroke-width:1.0;"/><line style="stroke:#181818;stroke-width:1.0;stroke-dasharray:2.0,2.0;" x1="67.4233" x2="423.2275" y1="701.1875" y2="701.1875"/><text fill="#000000" font-family="sans-serif" font-size="13" font-weight="bold" lengthAdjust="spacing" textLength="17.1514" x="79.4233" y="696.4453">19</text><text fill="#000000" font-family="sans-serif" font-size="13" lengthAdjust="spacing" textLength="316.6528" x="100.5747" y="696.4453">success: created patient profile(returns patient ID)</text><line style="stroke:#000000;stroke-width:1.0;stroke-dasharray:2.0,2.0;" x1="10" x2="1807.5244" y1="710.1875" y2="710.1875"/><text fill="#000000" font-family="sans-serif" font-size="11" font-weight="bold" lengthAdjust="spacing" textLength="231.7466" x="15" y="720.8223">[Email and Phone number already exists]</text><polygon fill="#181818" points="445.2275,741.4531,435.2275,745.4531,445.2275,749.4531,441.2275,745.4531" style="stroke:#181818;stroke-width:1.0;"/><line style="stroke:#181818;stroke-width:1.0;stroke-dasharray:2.0,2.0;" x1="439.2275" x2="804.145" y1="745.4531" y2="745.4531"/><text fill="#000000" font-family="sans-serif" font-size="13" font-weight="bold" lengthAdjust="spacing" textLength="17.1514" x="451.2275" y="740.7109">20</text><text fill="#000000" font-family="sans-serif" font-size="13" lengthAdjust="spacing" textLength="219.6733" x="472.3789" y="740.7109">error: patient profile already exists</text><polygon fill="#181818" points="73.4233,770.7637,63.4233,774.7637,73.4233,778.7637,69.4233,774.7637" style="stroke:#181818;stroke-width:1.0;"/><line style="stroke:#181818;stroke-width:1.0;stroke-dasharray:2.0,2.0;" x1="67.4233" x2="428.2275" y1="774.7637" y2="774.7637"/><text fill="#000000" font-family="sans-serif" font-size="13" font-weight="bold" lengthAdjust="spacing" textLength="17.1514" x="79.4233" y="770.0215">21</text><text fill="#000000" font-family="sans-serif" font-size="13" lengthAdjust="spacing" textLength="174.5352" x="100.5747" y="770.0215">error: patient already exists</text><!--SRC=[fPLDRzim38Rl_XL4Jp4metUZ6D0bpZ2WITmcorsrcLMOAxcId2x_VfHi9_xC1wgJ4rAFo5SYoGeZHV7-Yihp33SPmW-M_8r42h6I2MeDMuwVdfSpPNZ2SoOCtCsL58Pyxe1fc4TjuvHiIcOPAktiqsNRlaQrvqHsnlMsRPnjLgM1FjgM1Slp6hc8ExlaE-EYtBTecrumbveRgNXruaiKhxoK6VRAD58qpqymgtwL4Jq_UHvB3DypWpOve3MF8FXEcOGGhzORk6Svlu-PuIYCXiadDs_mX-zHW0NxRiiHGVb3jOuVqwNbhRSGmbGXUKqg6gNj7xsE25AfXx2B08In6H4euzgiThyrAflFn6zv7b7EkMLg_R3BkTZmI9eGVaQKhwNgdkCfFjAiQ-pzuG8cP5257892KoYXEv7tDgPusq5b_4xVgyveyDtZw85BcTrjxL7ntS4YO8BqwB9l-PiKk7GLvBUtiin0P7s0sNAoVb2M6Z25K0Z-KQ0tSA7q2Cu_Z9Rujb86TR2Oe0wyrk646zEWQne8S14JSIFBihiS8PNhsGiZdCrwqKlQ7tzoLETNlJYY1dN47Gs6jZHrkE846_c8mcFodXEZLS-FQVge3o8P5cFuoTvGrsKZgvlORRLzLNtJ6Rf8t0W98N7tca9UIPyhkUCqR2QrQhNXryo_jG5SQW9VENwiDmnSd1iGfwI_S6WzSXw2mCsSIyGX89ID1JCQScDDA2DSUW3yHxrHdodHPdQeb5HXBwSHLlFcEZEiaL-7ES1gS2YAeRltKAJUVm00]--></g></svg>