<svg xmlns="http://www.w3.org/2000/svg" xmlns:xlink="http://www.w3.org/1999/xlink" contentStyleType="text/css" height="854px" preserveAspectRatio="none" style="width:1370px;height:854px;background:#FFFFFF;" version="1.1" viewBox="0 0 1370 854" width="1370px" zoomAndPan="magnify"><title>BackEnd Process View</title><defs/><g><text fill="#000000" font-family="sans-serif" font-size="14" font-weight="bold" lengthAdjust="spacing" textLength="154.0752" x="609.2776" y="30.1074">BackEnd Process View</text><rect fill="#FFFFFF" height="629.4512" style="stroke:#181818;stroke-width:1.0;" width="10" x="50.793" y="119.2422"/><rect fill="#FFFFFF" height="606.1602" style="stroke:#181818;stroke-width:1.0;" width="10" x="327.9409" y="142.5332"/><rect fill="#FFFFFF" height="543.5781" style="stroke:#181818;stroke-width:1.0;" width="10" x="605.0889" y="173.8242"/><rect fill="#FFFFFF" height="57.582" style="stroke:#181818;stroke-width:1.0;" width="10" x="749.2788" y="205.1152"/><rect fill="#FFFFFF" height="93.873" style="stroke:#181818;stroke-width:1.0;" width="10" x="818.7891" y="293.9883"/><rect fill="#FFFFFF" height="31.291" style="stroke:#181818;stroke-width:1.0;" width="10" x="935.5381" y="325.2793"/><rect fill="#FFFFFF" height="266.959" style="stroke:#181818;stroke-width:1.0;" width="10" x="1022.5654" y="419.1523"/><rect fill="#FFFFFF" height="31.291" style="stroke:#181818;stroke-width:1.0;" width="10" x="1299.7134" y="450.4434"/><rect fill="#FFFFFF" height="31.291" style="stroke:#181818;stroke-width:1.0;" width="10" x="1299.7134" y="623.5293"/><rect fill="none" height="536.5781" style="stroke:#000000;stroke-width:1.5;" width="1353.6304" x="10" y="220.1152"/><line style="stroke:#181818;stroke-width:0.5;stroke-dasharray:5.0,5.0;" x1="55" x2="55" y1="109.2422" y2="773.6934"/><line style="stroke:#181818;stroke-width:0.5;stroke-dasharray:5.0,5.0;" x1="332.0962" x2="332.0962" y1="109.2422" y2="773.6934"/><line style="stroke:#181818;stroke-width:0.5;stroke-dasharray:5.0,5.0;" x1="609.2476" x2="609.2476" y1="109.2422" y2="773.6934"/><line style="stroke:#181818;stroke-width:0.5;stroke-dasharray:5.0,5.0;" x1="754.0029" x2="754.0029" y1="109.2422" y2="773.6934"/><line style="stroke:#181818;stroke-width:0.5;stroke-dasharray:5.0,5.0;" x1="823.5547" x2="823.5547" y1="109.2422" y2="773.6934"/><line style="stroke:#181818;stroke-width:0.5;stroke-dasharray:5.0,5.0;" x1="940.4175" x2="940.4175" y1="109.2422" y2="773.6934"/><line style="stroke:#181818;stroke-width:0.5;stroke-dasharray:5.0,5.0;" x1="1026.6587" x2="1026.6587" y1="109.2422" y2="773.6934"/><line style="stroke:#181818;stroke-width:0.5;stroke-dasharray:5.0,5.0;" x1="1303.7964" x2="1303.7964" y1="109.2422" y2="773.6934"/><rect fill="#E2E2F0" height="32.6211" rx="2.5" ry="2.5" style="stroke:#181818;stroke-width:0.5;" width="71.5859" x="20" y="75.6211"/><text fill="#000000" font-family="sans-serif" font-size="14" lengthAdjust="spacing" textLength="57.5859" x="27" y="97.7285">FrontEnd</text><rect fill="#E2E2F0" height="32.6211" rx="2.5" ry="2.5" style="stroke:#181818;stroke-width:0.5;" width="71.5859" x="20" y="772.6934"/><text fill="#000000" font-family="sans-serif" font-size="14" lengthAdjust="spacing" textLength="57.5859" x="27" y="794.8008">FrontEnd</text><rect fill="#E2E2F0" height="32.6211" rx="2.5" ry="2.5" style="stroke:#181818;stroke-width:0.5;" width="81.6895" x="292.0962" y="75.6211"/><text fill="#000000" font-family="sans-serif" font-size="14" lengthAdjust="spacing" textLength="67.6895" x="299.0962" y="97.7285">Controllers</text><rect fill="#E2E2F0" height="32.6211" rx="2.5" ry="2.5" style="stroke:#181818;stroke-width:0.5;" width="81.6895" x="292.0962" y="772.6934"/><text fill="#000000" font-family="sans-serif" font-size="14" lengthAdjust="spacing" textLength="67.6895" x="299.0962" y="794.8008">Controllers</text><rect fill="#E2E2F0" height="32.6211" rx="2.5" ry="2.5" style="stroke:#181818;stroke-width:0.5;" width="67.6826" x="576.2476" y="75.6211"/><text fill="#000000" font-family="sans-serif" font-size="14" lengthAdjust="spacing" textLength="53.6826" x="583.2476" y="97.7285">Services</text><rect fill="#E2E2F0" height="32.6211" rx="2.5" ry="2.5" style="stroke:#181818;stroke-width:0.5;" width="67.6826" x="576.2476" y="772.6934"/><text fill="#000000" font-family="sans-serif" font-size="14" lengthAdjust="spacing" textLength="53.6826" x="583.2476" y="794.8008">Services</text><rect fill="#E2E2F0" height="32.6211" rx="2.5" ry="2.5" style="stroke:#181818;stroke-width:0.5;" width="50.5518" x="729.0029" y="75.6211"/><text fill="#000000" font-family="sans-serif" font-size="14" lengthAdjust="spacing" textLength="36.5518" x="736.0029" y="97.7285">DTOs</text><rect fill="#E2E2F0" height="32.6211" rx="2.5" ry="2.5" style="stroke:#181818;stroke-width:0.5;" width="50.5518" x="729.0029" y="772.6934"/><text fill="#000000" font-family="sans-serif" font-size="14" lengthAdjust="spacing" textLength="36.5518" x="736.0029" y="794.8008">DTOs</text><rect fill="#E2E2F0" height="32.6211" rx="2.5" ry="2.5" style="stroke:#181818;stroke-width:0.5;" width="68.4688" x="789.5547" y="75.6211"/><text fill="#000000" font-family="sans-serif" font-size="14" lengthAdjust="spacing" textLength="54.4688" x="796.5547" y="97.7285">Mappers</text><rect fill="#E2E2F0" height="32.6211" rx="2.5" ry="2.5" style="stroke:#181818;stroke-width:0.5;" width="68.4688" x="789.5547" y="772.6934"/><text fill="#000000" font-family="sans-serif" font-size="14" lengthAdjust="spacing" textLength="54.4688" x="796.5547" y="794.8008">Mappers</text><rect fill="#E2E2F0" height="32.6211" rx="2.5" ry="2.5" style="stroke:#181818;stroke-width:0.5;" width="62.2412" x="909.4175" y="75.6211"/><text fill="#000000" font-family="sans-serif" font-size="14" lengthAdjust="spacing" textLength="48.2412" x="916.4175" y="97.7285">Domain</text><rect fill="#E2E2F0" height="32.6211" rx="2.5" ry="2.5" style="stroke:#181818;stroke-width:0.5;" width="62.2412" x="909.4175" y="772.6934"/><text fill="#000000" font-family="sans-serif" font-size="14" lengthAdjust="spacing" textLength="48.2412" x="916.4175" y="794.8008">Domain</text><rect fill="#E2E2F0" height="32.6211" rx="2.5" ry="2.5" style="stroke:#181818;stroke-width:0.5;" width="91.8135" x="981.6587" y="75.6211"/><text fill="#000000" font-family="sans-serif" font-size="14" lengthAdjust="spacing" textLength="77.8135" x="988.6587" y="97.7285">Repositories</text><rect fill="#E2E2F0" height="32.6211" rx="2.5" ry="2.5" style="stroke:#181818;stroke-width:0.5;" width="91.8135" x="981.6587" y="772.6934"/><text fill="#000000" font-family="sans-serif" font-size="14" lengthAdjust="spacing" textLength="77.8135" x="988.6587" y="794.8008">Repositories</text><text fill="#000000" font-family="sans-serif" font-size="14" lengthAdjust="spacing" textLength="91.834" x="1255.7964" y="105.7285">SQL Database</text><path d="M1286.7134,54.6211 C1286.7134,44.6211 1304.7134,44.6211 1304.7134,44.6211 C1304.7134,44.6211 1322.7134,44.6211 1322.7134,54.6211 L1322.7134,80.6211 C1322.7134,90.6211 1304.7134,90.6211 1304.7134,90.6211 C1304.7134,90.6211 1286.7134,90.6211 1286.7134,80.6211 L1286.7134,54.6211 " fill="#E2E2F0" style="stroke:#181818;stroke-width:1.5;"/><path d="M1286.7134,54.6211 C1286.7134,64.6211 1304.7134,64.6211 1304.7134,64.6211 C1304.7134,64.6211 1322.7134,64.6211 1322.7134,54.6211 " fill="none" style="stroke:#181818;stroke-width:1.5;"/><text fill="#000000" font-family="sans-serif" font-size="14" lengthAdjust="spacing" textLength="91.834" x="1255.7964" y="787.8008">SQL Database</text><path d="M1286.7134,801.3145 C1286.7134,791.3145 1304.7134,791.3145 1304.7134,791.3145 C1304.7134,791.3145 1322.7134,791.3145 1322.7134,801.3145 L1322.7134,827.3145 C1322.7134,837.3145 1304.7134,837.3145 1304.7134,837.3145 C1304.7134,837.3145 1286.7134,837.3145 1286.7134,827.3145 L1286.7134,801.3145 " fill="#E2E2F0" style="stroke:#181818;stroke-width:1.5;"/><path d="M1286.7134,801.3145 C1286.7134,811.3145 1304.7134,811.3145 1304.7134,811.3145 C1304.7134,811.3145 1322.7134,811.3145 1322.7134,801.3145 " fill="none" style="stroke:#181818;stroke-width:1.5;"/><rect fill="#FFFFFF" height="629.4512" style="stroke:#181818;stroke-width:1.0;" width="10" x="50.793" y="119.2422"/><rect fill="#FFFFFF" height="606.1602" style="stroke:#181818;stroke-width:1.0;" width="10" x="327.9409" y="142.5332"/><rect fill="#FFFFFF" height="543.5781" style="stroke:#181818;stroke-width:1.0;" width="10" x="605.0889" y="173.8242"/><rect fill="#FFFFFF" height="57.582" style="stroke:#181818;stroke-width:1.0;" width="10" x="749.2788" y="205.1152"/><rect fill="#FFFFFF" height="93.873" style="stroke:#181818;stroke-width:1.0;" width="10" x="818.7891" y="293.9883"/><rect fill="#FFFFFF" height="31.291" style="stroke:#181818;stroke-width:1.0;" width="10" x="935.5381" y="325.2793"/><rect fill="#FFFFFF" height="266.959" style="stroke:#181818;stroke-width:1.0;" width="10" x="1022.5654" y="419.1523"/><rect fill="#FFFFFF" height="31.291" style="stroke:#181818;stroke-width:1.0;" width="10" x="1299.7134" y="450.4434"/><rect fill="#FFFFFF" height="31.291" style="stroke:#181818;stroke-width:1.0;" width="10" x="1299.7134" y="623.5293"/><polygon fill="#181818" points="315.9409,138.5332,325.9409,142.5332,315.9409,146.5332,319.9409,142.5332" style="stroke:#181818;stroke-width:1.0;"/><line style="stroke:#181818;stroke-width:1.0;" x1="60.793" x2="321.9409" y1="142.5332" y2="142.5332"/><text fill="#000000" font-family="sans-serif" font-size="13" font-weight="bold" lengthAdjust="spacing" textLength="7.23" x="67.793" y="137.2705">1</text><text fill="#000000" font-family="sans-serif" font-size="13" lengthAdjust="spacing" textLength="230.4707" x="79.0229" y="137.2705">POST /users-backoffice (with user data)</text><polygon fill="#181818" points="593.0889,169.8242,603.0889,173.8242,593.0889,177.8242,597.0889,173.8242" style="stroke:#181818;stroke-width:1.0;"/><line style="stroke:#181818;stroke-width:1.0;" x1="337.9409" x2="599.0889" y1="173.8242" y2="173.8242"/><text fill="#000000" font-family="sans-serif" font-size="13" font-weight="bold" lengthAdjust="spacing" textLength="7.23" x="344.9409" y="168.5615">2</text><text fill="#000000" font-family="sans-serif" font-size="13" lengthAdjust="spacing" textLength="102.5654" x="356.1709" y="168.5615">Create(UserDTO)</text><polygon fill="#181818" points="737.2788,201.1152,747.2788,205.1152,737.2788,209.1152,741.2788,205.1152" style="stroke:#181818;stroke-width:1.0;"/><line style="stroke:#181818;stroke-width:1.0;" x1="615.0889" x2="743.2788" y1="205.1152" y2="205.1152"/><text fill="#000000" font-family="sans-serif" font-size="13" font-weight="bold" lengthAdjust="spacing" textLength="7.23" x="622.0889" y="199.8525">3</text><text fill="#000000" font-family="sans-serif" font-size="13" lengthAdjust="spacing" textLength="102.5654" x="633.3188" y="199.8525">Create(UserDTO)</text><path d="M10,220.1152 L70.1709,220.1152 L70.1709,229.4063 L60.1709,239.4063 L10,239.4063 L10,220.1152 " fill="#EEEEEE" style="stroke:#000000;stroke-width:1.5;"/><rect fill="none" height="536.5781" style="stroke:#000000;stroke-width:1.5;" width="1353.6304" x="10" y="220.1152"/><text fill="#000000" font-family="sans-serif" font-size="13" font-weight="bold" lengthAdjust="spacing" textLength="15.1709" x="25" y="235.1436">alt</text><text fill="#000000" font-family="sans-serif" font-size="11" font-weight="bold" lengthAdjust="spacing" textLength="97.813" x="85.1709" y="233.9854">[User data is valid]</text><polygon fill="#181818" points="626.0889,258.6973,616.0889,262.6973,626.0889,266.6973,622.0889,262.6973" style="stroke:#181818;stroke-width:1.0;"/><line style="stroke:#181818;stroke-width:1.0;stroke-dasharray:2.0,2.0;" x1="620.0889" x2="753.2788" y1="262.6973" y2="262.6973"/><text fill="#000000" font-family="sans-serif" font-size="13" font-weight="bold" lengthAdjust="spacing" textLength="7.23" x="632.0889" y="257.4346">4</text><text fill="#000000" font-family="sans-serif" font-size="13" lengthAdjust="spacing" textLength="98.96" x="643.3188" y="257.4346">returns UserDTO</text><polygon fill="#181818" points="806.7891,289.9883,816.7891,293.9883,806.7891,297.9883,810.7891,293.9883" style="stroke:#181818;stroke-width:1.0;"/><line style="stroke:#181818;stroke-width:1.0;" x1="615.0889" x2="812.7891" y1="293.9883" y2="293.9883"/><text fill="#000000" font-family="sans-serif" font-size="13" font-weight="bold" lengthAdjust="spacing" textLength="7.23" x="622.0889" y="288.7256">5</text><text fill="#000000" font-family="sans-serif" font-size="13" lengthAdjust="spacing" textLength="148.8018" x="633.3188" y="288.7256">MapToDomain(UserDTO)</text><polygon fill="#181818" points="923.5381,321.2793,933.5381,325.2793,923.5381,329.2793,927.5381,325.2793" style="stroke:#181818;stroke-width:1.0;"/><line style="stroke:#181818;stroke-width:1.0;" x1="828.7891" x2="929.5381" y1="325.2793" y2="325.2793"/><text fill="#000000" font-family="sans-serif" font-size="13" font-weight="bold" lengthAdjust="spacing" textLength="7.23" x="835.7891" y="320.0166">6</text><text fill="#000000" font-family="sans-serif" font-size="13" lengthAdjust="spacing" textLength="75.1245" x="847.019" y="320.0166">Create(User)</text><polygon fill="#181818" points="839.7891,352.5703,829.7891,356.5703,839.7891,360.5703,835.7891,356.5703" style="stroke:#181818;stroke-width:1.0;"/><line style="stroke:#181818;stroke-width:1.0;stroke-dasharray:2.0,2.0;" x1="833.7891" x2="939.5381" y1="356.5703" y2="356.5703"/><text fill="#000000" font-family="sans-serif" font-size="13" font-weight="bold" lengthAdjust="spacing" textLength="7.23" x="845.7891" y="351.3076">7</text><text fill="#000000" font-family="sans-serif" font-size="13" lengthAdjust="spacing" textLength="71.519" x="857.019" y="351.3076">returns User</text><polygon fill="#181818" points="626.0889,383.8613,616.0889,387.8613,626.0889,391.8613,622.0889,387.8613" style="stroke:#181818;stroke-width:1.0;"/><line style="stroke:#181818;stroke-width:1.0;stroke-dasharray:2.0,2.0;" x1="620.0889" x2="822.7891" y1="387.8613" y2="387.8613"/><text fill="#000000" font-family="sans-serif" font-size="13" font-weight="bold" lengthAdjust="spacing" textLength="7.23" x="632.0889" y="382.5986">8</text><text fill="#000000" font-family="sans-serif" font-size="13" lengthAdjust="spacing" textLength="71.519" x="643.3188" y="382.5986">returns User</text><polygon fill="#181818" points="1010.5654,415.1523,1020.5654,419.1523,1010.5654,423.1523,1014.5654,419.1523" style="stroke:#181818;stroke-width:1.0;"/><line style="stroke:#181818;stroke-width:1.0;" x1="615.0889" x2="1016.5654" y1="419.1523" y2="419.1523"/><text fill="#000000" font-family="sans-serif" font-size="13" font-weight="bold" lengthAdjust="spacing" textLength="7.23" x="622.0889" y="413.8896">9</text><text fill="#000000" font-family="sans-serif" font-size="13" lengthAdjust="spacing" textLength="94.6372" x="633.3188" y="413.8896">AddAsync(User)</text><polygon fill="#181818" points="1287.7134,446.4434,1297.7134,450.4434,1287.7134,454.4434,1291.7134,450.4434" style="stroke:#181818;stroke-width:1.0;"/><line style="stroke:#181818;stroke-width:1.0;" x1="1032.5654" x2="1293.7134" y1="450.4434" y2="450.4434"/><text fill="#000000" font-family="sans-serif" font-size="13" font-weight="bold" lengthAdjust="spacing" textLength="14.46" x="1039.5654" y="445.1807">10</text><text fill="#000000" font-family="sans-serif" font-size="13" lengthAdjust="spacing" textLength="176.9854" x="1058.0254" y="445.1807">POST /users-backoffice (User)</text><polygon fill="#181818" points="1043.5654,477.7344,1033.5654,481.7344,1043.5654,485.7344,1039.5654,481.7344" style="stroke:#181818;stroke-width:1.0;"/><line style="stroke:#181818;stroke-width:1.0;stroke-dasharray:2.0,2.0;" x1="1037.5654" x2="1303.7134" y1="481.7344" y2="481.7344"/><text fill="#000000" font-family="sans-serif" font-size="13" font-weight="bold" lengthAdjust="spacing" textLength="14.46" x="1049.5654" y="476.4717">11</text><text fill="#000000" font-family="sans-serif" font-size="13" lengthAdjust="spacing" textLength="224.688" x="1068.0254" y="476.4717">success: created user (returns user ID)</text><polygon fill="#181818" points="626.0889,509.0254,616.0889,513.0254,626.0889,517.0254,622.0889,513.0254" style="stroke:#181818;stroke-width:1.0;"/><line style="stroke:#181818;stroke-width:1.0;stroke-dasharray:2.0,2.0;" x1="620.0889" x2="1021.5654" y1="513.0254" y2="513.0254"/><text fill="#000000" font-family="sans-serif" font-size="13" font-weight="bold" lengthAdjust="spacing" textLength="14.46" x="632.0889" y="507.7627">12</text><text fill="#000000" font-family="sans-serif" font-size="13" lengthAdjust="spacing" textLength="224.688" x="650.5488" y="507.7627">success: created user (returns user ID)</text><polygon fill="#181818" points="348.9409,540.3164,338.9409,544.3164,348.9409,548.3164,344.9409,544.3164" style="stroke:#181818;stroke-width:1.0;"/><line style="stroke:#181818;stroke-width:1.0;stroke-dasharray:2.0,2.0;" x1="342.9409" x2="604.0889" y1="544.3164" y2="544.3164"/><text fill="#000000" font-family="sans-serif" font-size="13" font-weight="bold" lengthAdjust="spacing" textLength="14.46" x="354.9409" y="539.0537">13</text><text fill="#000000" font-family="sans-serif" font-size="13" lengthAdjust="spacing" textLength="224.688" x="373.4009" y="539.0537">success: created user (returns user ID)</text><polygon fill="#181818" points="71.793,571.6074,61.793,575.6074,71.793,579.6074,67.793,575.6074" style="stroke:#181818;stroke-width:1.0;"/><line style="stroke:#181818;stroke-width:1.0;stroke-dasharray:2.0,2.0;" x1="65.793" x2="326.9409" y1="575.6074" y2="575.6074"/><text fill="#000000" font-family="sans-serif" font-size="13" font-weight="bold" lengthAdjust="spacing" textLength="14.46" x="77.793" y="570.3447">14</text><text fill="#000000" font-family="sans-serif" font-size="13" lengthAdjust="spacing" textLength="224.688" x="96.2529" y="570.3447">success: created user (returns user ID)</text><line style="stroke:#000000;stroke-width:1.0;stroke-dasharray:2.0,2.0;" x1="10" x2="1363.6304" y1="584.6074" y2="584.6074"/><text fill="#000000" font-family="sans-serif" font-size="11" font-weight="bold" lengthAdjust="spacing" textLength="107.5884" x="15" y="596.4775">[User data is invalid]</text><polygon fill="#181818" points="1287.7134,619.5293,1297.7134,623.5293,1287.7134,627.5293,1291.7134,623.5293" style="stroke:#181818;stroke-width:1.0;"/><line style="stroke:#181818;stroke-width:1.0;" x1="1032.5654" x2="1293.7134" y1="623.5293" y2="623.5293"/><text fill="#000000" font-family="sans-serif" font-size="13" font-weight="bold" lengthAdjust="spacing" textLength="14.46" x="1039.5654" y="618.2666">15</text><text fill="#000000" font-family="sans-serif" font-size="13" lengthAdjust="spacing" textLength="176.9854" x="1058.0254" y="618.2666">POST /users-backoffice (User)</text><polygon fill="#181818" points="1043.5654,650.8203,1033.5654,654.8203,1043.5654,658.8203,1039.5654,654.8203" style="stroke:#181818;stroke-width:1.0;"/><line style="stroke:#181818;stroke-width:1.0;stroke-dasharray:2.0,2.0;" x1="1037.5654" x2="1303.7134" y1="654.8203" y2="654.8203"/><text fill="#000000" font-family="sans-serif" font-size="13" font-weight="bold" lengthAdjust="spacing" textLength="14.46" x="1049.5654" y="649.5576">16</text><text fill="#000000" font-family="sans-serif" font-size="13" lengthAdjust="spacing" textLength="143.0508" x="1068.0254" y="649.5576">error: user already exists</text><polygon fill="#181818" points="626.0889,682.1113,616.0889,686.1113,626.0889,690.1113,622.0889,686.1113" style="stroke:#181818;stroke-width:1.0;"/><line style="stroke:#181818;stroke-width:1.0;stroke-dasharray:2.0,2.0;" x1="620.0889" x2="1026.5654" y1="686.1113" y2="686.1113"/><text fill="#000000" font-family="sans-serif" font-size="13" font-weight="bold" lengthAdjust="spacing" textLength="14.46" x="632.0889" y="680.8486">17</text><text fill="#000000" font-family="sans-serif" font-size="13" lengthAdjust="spacing" textLength="143.0508" x="650.5488" y="680.8486">error: user already exists</text><polygon fill="#181818" points="348.9409,713.4023,338.9409,717.4023,348.9409,721.4023,344.9409,717.4023" style="stroke:#181818;stroke-width:1.0;"/><line style="stroke:#181818;stroke-width:1.0;stroke-dasharray:2.0,2.0;" x1="342.9409" x2="609.0889" y1="717.4023" y2="717.4023"/><text fill="#000000" font-family="sans-serif" font-size="13" font-weight="bold" lengthAdjust="spacing" textLength="14.46" x="354.9409" y="712.1396">18</text><text fill="#000000" font-family="sans-serif" font-size="13" lengthAdjust="spacing" textLength="143.0508" x="373.4009" y="712.1396">error: user already exists</text><polygon fill="#181818" points="66.793,744.6934,56.793,748.6934,66.793,752.6934,62.793,748.6934" style="stroke:#181818;stroke-width:1.0;"/><line style="stroke:#181818;stroke-width:1.0;stroke-dasharray:2.0,2.0;" x1="60.793" x2="331.9409" y1="748.6934" y2="748.6934"/><text fill="#000000" font-family="sans-serif" font-size="13" font-weight="bold" lengthAdjust="spacing" textLength="14.46" x="72.793" y="743.4307">19</text><text fill="#000000" font-family="sans-serif" font-size="13" lengthAdjust="spacing" textLength="143.0508" x="91.2529" y="743.4307">error: user already exists</text><!--SRC=[pLLDRy8m3BtdLrYSu53jZgP96n_If7LqmBY79jEYTKcLfB3z-pafBGqjK75Q3eZMzlFpUpZGmYfPV6-v9iGAct5uekdNJ398j4gvCR0HV4z8JhKLgSYfj32OQoKjvWo06fZFmk04Orfb6TV6noUlONp5zKuWiW-kDc5mkbwK0VmIHcAQvnLad9nKgMygP5aNXw4bpvKHLcbnwBYS9Gl2gALRQZYoUNk1wU6fPFJsGWXDhTXHozrmW6S-W-W19nb3ibYjuQumI2NQebBgumE7WU5Us4zmhy5XZtnLZO8Ik6V_uSxarS6jDZ26YUQOCNp7IXnvLAVKjQXGzQx-uWvM8mRMN009W9oYpG2XcONtYZ480pkQ2HRcmCbn_QAAk-QsqDB0eM-GpFZvnkqnuWJXqE6rAgsyCWhwVv4bmZbjub2QKIllI35knRgHlGQnby1pRahGIcvg45zdt2NhEKrF53WZg_kj8-0ZOu_cLwOTAjI0VYqkKlHWZYDkpFazk2AqswvU8hikqN44KwJkCXf3wlravQeDAwdyq_DqTCc2NgtB8IidRkbAMZxucwC_sf4KtZhtKUIldTwrX6TuhGLhBMIvsF_BKQwrqkEIESrmAlOB_4SOQsusCJIlPuC6U6i7ckxrW6lot7IvU0MZKOyjkuGaZHJyQ-AIaJy0]--></g></svg>