<svg xmlns="http://www.w3.org/2000/svg" xmlns:xlink="http://www.w3.org/1999/xlink" contentStyleType="text/css" height="390px" preserveAspectRatio="none" style="width:681px;height:390px;background:#FFFFFF;" version="1.1" viewBox="0 0 681 390" width="681px" zoomAndPan="magnify"><defs/><g><rect fill="#FFFFFF" height="208.1289" style="stroke:#181818;stroke-width:1.0;" width="10" x="40.1382" y="91.4883"/><rect fill="#FFFFFF" height="44.6211" style="stroke:#181818;stroke-width:1.0;" width="10" x="608.0659" y="112.7988"/><rect fill="#FFFFFF" height="112.8867" style="stroke:#181818;stroke-width:1.0;" width="10" x="608.0659" y="186.7305"/><rect fill="none" height="90.8867" style="stroke:#000000;stroke-width:1.5;" width="664.479" x="10" y="201.7305"/><line style="stroke:#181818;stroke-width:0.5;stroke-dasharray:5.0,5.0;" x1="45" x2="45" y1="81.4883" y2="309.6172"/><line style="stroke:#181818;stroke-width:0.5;stroke-dasharray:5.0,5.0;" x1="612.6528" x2="612.6528" y1="81.4883" y2="309.6172"/><text fill="#000000" font-family="sans-serif" font-size="14" lengthAdjust="spacing" textLength="44.2764" x="20" y="78.5352">Admin</text><ellipse cx="45.1382" cy="13.5" fill="#E2E2F0" rx="8" ry="8" style="stroke:#181818;stroke-width:0.5;"/><path d="M45.1382,21.5 L45.1382,48.5 M32.1382,29.5 L58.1382,29.5 M45.1382,48.5 L32.1382,63.5 M45.1382,48.5 L58.1382,63.5 " fill="none" style="stroke:#181818;stroke-width:0.5;"/><text fill="#000000" font-family="sans-serif" font-size="14" lengthAdjust="spacing" textLength="44.2764" x="20" y="322.1523">Admin</text><ellipse cx="45.1382" cy="333.6055" fill="#E2E2F0" rx="8" ry="8" style="stroke:#181818;stroke-width:0.5;"/><path d="M45.1382,341.6055 L45.1382,368.6055 M32.1382,349.6055 L58.1382,349.6055 M45.1382,368.6055 L32.1382,383.6055 M45.1382,368.6055 L58.1382,383.6055 " fill="none" style="stroke:#181818;stroke-width:0.5;"/><rect fill="#E2E2F0" height="46.9766" rx="2.5" ry="2.5" style="stroke:#181818;stroke-width:0.5;" width="102.8262" x="561.6528" y="33.5117"/><text fill="#000000" font-family="sans-serif" font-size="14" lengthAdjust="spacing" textLength="62.7676" x="581.6821" y="54.0469">&#171;System&#187;</text><text fill="#000000" font-family="sans-serif" font-size="14" lengthAdjust="spacing" textLength="84.3965" x="573.0825" y="70.5352">SurgicalSync</text><rect fill="#E2E2F0" height="46.9766" rx="2.5" ry="2.5" style="stroke:#181818;stroke-width:0.5;" width="102.8262" x="561.6528" y="308.6172"/><text fill="#000000" font-family="sans-serif" font-size="14" lengthAdjust="spacing" textLength="62.7676" x="581.6821" y="329.1523">&#171;System&#187;</text><text fill="#000000" font-family="sans-serif" font-size="14" lengthAdjust="spacing" textLength="84.3965" x="573.0825" y="345.6406">SurgicalSync</text><rect fill="#FFFFFF" height="208.1289" style="stroke:#181818;stroke-width:1.0;" width="10" x="40.1382" y="91.4883"/><rect fill="#FFFFFF" height="44.6211" style="stroke:#181818;stroke-width:1.0;" width="10" x="608.0659" y="112.7988"/><rect fill="#FFFFFF" height="112.8867" style="stroke:#181818;stroke-width:1.0;" width="10" x="608.0659" y="186.7305"/><polygon fill="#181818" points="596.0659,108.7988,606.0659,112.7988,596.0659,116.7988,600.0659,112.7988" style="stroke:#181818;stroke-width:1.0;"/><line style="stroke:#181818;stroke-width:1.0;" x1="50.1382" x2="602.0659" y1="112.7988" y2="112.7988"/><text fill="#000000" font-family="sans-serif" font-size="13" font-weight="bold" lengthAdjust="spacing" textLength="8.5757" x="57.1382" y="108.0566">1</text><text fill="#000000" font-family="sans-serif" font-size="13" lengthAdjust="spacing" textLength="201.0303" x="69.7139" y="108.0566">wants to create a patient profile</text><polygon fill="#181818" points="61.1382,153.4199,51.1382,157.4199,61.1382,161.4199,57.1382,157.4199" style="stroke:#181818;stroke-width:1.0;"/><line style="stroke:#181818;stroke-width:1.0;stroke-dasharray:2.0,2.0;" x1="55.1382" x2="612.0659" y1="157.4199" y2="157.4199"/><text fill="#000000" font-family="sans-serif" font-size="13" font-weight="bold" lengthAdjust="spacing" textLength="8.5757" x="67.1382" y="145.0225">2</text><text fill="#000000" font-family="sans-serif" font-size="13" lengthAdjust="spacing" textLength="449.5854" x="79.7139" y="137.3672">requests data (patientName, birthDate, gender, medicalRecordNumber,</text><text fill="#000000" font-family="sans-serif" font-size="13" lengthAdjust="spacing" textLength="521.3521" x="79.7139" y="152.6777">phoneNumber, medicalConditions, emergencyContact, appointmentHistory, email)</text><polygon fill="#181818" points="596.0659,182.7305,606.0659,186.7305,596.0659,190.7305,600.0659,186.7305" style="stroke:#181818;stroke-width:1.0;"/><line style="stroke:#181818;stroke-width:1.0;" x1="50.1382" x2="602.0659" y1="186.7305" y2="186.7305"/><text fill="#000000" font-family="sans-serif" font-size="13" font-weight="bold" lengthAdjust="spacing" textLength="8.5757" x="57.1382" y="181.9883">3</text><text fill="#000000" font-family="sans-serif" font-size="13" lengthAdjust="spacing" textLength="85.541" x="69.7139" y="181.9883">provides data</text><path d="M10,201.7305 L72.1387,201.7305 L72.1387,209.041 L62.1387,219.041 L10,219.041 L10,201.7305 " fill="#EEEEEE" style="stroke:#000000;stroke-width:1.5;"/><rect fill="none" height="90.8867" style="stroke:#000000;stroke-width:1.5;" width="664.479" x="10" y="201.7305"/><text fill="#000000" font-family="sans-serif" font-size="13" font-weight="bold" lengthAdjust="spacing" textLength="17.1387" x="25" y="215.2988">alt</text><text fill="#000000" font-family="sans-serif" font-size="11" font-weight="bold" lengthAdjust="spacing" textLength="213.5654" x="87.1387" y="214.3652">[Email and Phone number are unique]</text><polygon fill="#181818" points="61.1382,236.3516,51.1382,240.3516,61.1382,244.3516,57.1382,240.3516" style="stroke:#181818;stroke-width:1.0;"/><line style="stroke:#181818;stroke-width:1.0;stroke-dasharray:2.0,2.0;" x1="55.1382" x2="607.0659" y1="240.3516" y2="240.3516"/><text fill="#000000" font-family="sans-serif" font-size="13" font-weight="bold" lengthAdjust="spacing" textLength="8.5757" x="67.1382" y="235.6094">4</text><text fill="#000000" font-family="sans-serif" font-size="13" lengthAdjust="spacing" textLength="196.8281" x="79.7139" y="235.6094">success: patient profile created</text><line style="stroke:#000000;stroke-width:1.0;stroke-dasharray:2.0,2.0;" x1="10" x2="674.479" y1="249.3516" y2="249.3516"/><text fill="#000000" font-family="sans-serif" font-size="11" font-weight="bold" lengthAdjust="spacing" textLength="231.7466" x="15" y="259.9863">[Email and Phone number already exists]</text><polygon fill="#181818" points="61.1382,280.6172,51.1382,284.6172,61.1382,288.6172,57.1382,284.6172" style="stroke:#181818;stroke-width:1.0;"/><line style="stroke:#181818;stroke-width:1.0;stroke-dasharray:2.0,2.0;" x1="55.1382" x2="607.0659" y1="284.6172" y2="284.6172"/><text fill="#000000" font-family="sans-serif" font-size="13" font-weight="bold" lengthAdjust="spacing" textLength="8.5757" x="67.1382" y="279.875">5</text><text fill="#000000" font-family="sans-serif" font-size="13" lengthAdjust="spacing" textLength="239.021" x="79.7139" y="279.875">error: email and phone number exists</text><!--SRC=[XP7FJiCm3CRlVGfh9v3Q5wYcIGWcSM52AnoGTl4Iirbgav2aWxuzJlynJGDoIgBFly_-Z6sqfctsvBCCLRGU5dUwORC03F1QhRUPGnzPiKCJOR5SLbs8rAnMEmDLwm-iiAuwetfzzLQzh9zw49ymqW38G4wwGR4Q9ILy2Yv0jA0y9IM2myWa7ixRTwwfhvf14nd6CxoX469FBi7JHqj1c1eZmir8ss13EUpPn-E3S78uaD7aSsX8fzQtfApNcpw0V6VSqHeQNvFatXhDaQq9EL13NWYgayyepUM0pbasiH6lHmwINvTKoFLjtwkcon6c2Qwa8bF8y2VMD4nnDOAf7ki8wsG4Q3GyfyPXM2IW9sWDInwpUZPR5iMFMsYLeX3Ao-p7fUYvdEf0lxhL8jOTq9VC7_vn9E-jBuU4UfGxHrqWP5L_X9YTVIUZRm00]--></g></svg>