<svg xmlns="http://www.w3.org/2000/svg" xmlns:xlink="http://www.w3.org/1999/xlink" contentStyleType="text/css" height="477px" preserveAspectRatio="none" style="width:668px;height:477px;background:#FFFFFF;" version="1.1" viewBox="0 0 668 477" width="668px" zoomAndPan="magnify"><defs/><g><rect fill="#FFFFFF" height="287.1055" style="stroke:#181818;stroke-width:1.0;" width="10" x="40.1382" y="91.4883"/><rect fill="#FFFFFF" height="29.3105" style="stroke:#181818;stroke-width:1.0;" width="10" x="375.748" y="112.7988"/><rect fill="#FFFFFF" height="29.3105" style="stroke:#181818;stroke-width:1.0;" width="10" x="375.748" y="171.4199"/><rect fill="#FFFFFF" height="124.2422" style="stroke:#181818;stroke-width:1.0;" width="10" x="375.748" y="254.3516"/><rect fill="#FFFFFF" height="29.3105" style="stroke:#181818;stroke-width:1.0;" width="10" x="611.9346" y="283.6621"/><rect fill="none" height="134.5527" style="stroke:#000000;stroke-width:1.5;" width="652.0474" x="10" y="215.7305"/><line style="stroke:#181818;stroke-width:0.5;stroke-dasharray:5.0,5.0;" x1="45" x2="45" y1="81.4883" y2="396.5938"/><line style="stroke:#181818;stroke-width:0.5;stroke-dasharray:5.0,5.0;" x1="380.3247" x2="380.3247" y1="81.4883" y2="396.5938"/><line style="stroke:#181818;stroke-width:0.5;stroke-dasharray:5.0,5.0;" x1="616.8218" x2="616.8218" y1="81.4883" y2="396.5938"/><text fill="#000000" font-family="sans-serif" font-size="14" lengthAdjust="spacing" textLength="44.2764" x="20" y="78.5352">Admin</text><ellipse cx="45.1382" cy="13.5" fill="#E2E2F0" rx="8" ry="8" style="stroke:#181818;stroke-width:0.5;"/><path d="M45.1382,21.5 L45.1382,48.5 M32.1382,29.5 L58.1382,29.5 M45.1382,48.5 L32.1382,63.5 M45.1382,48.5 L58.1382,63.5 " fill="none" style="stroke:#181818;stroke-width:0.5;"/><text fill="#000000" font-family="sans-serif" font-size="14" lengthAdjust="spacing" textLength="44.2764" x="20" y="409.1289">Admin</text><ellipse cx="45.1382" cy="420.582" fill="#E2E2F0" rx="8" ry="8" style="stroke:#181818;stroke-width:0.5;"/><path d="M45.1382,428.582 L45.1382,455.582 M32.1382,436.582 L58.1382,436.582 M45.1382,455.582 L32.1382,470.582 M45.1382,455.582 L58.1382,470.582 " fill="none" style="stroke:#181818;stroke-width:0.5;"/><rect fill="#E2E2F0" height="30.4883" rx="2.5" ry="2.5" style="stroke:#181818;stroke-width:0.5;" width="74.8467" x="343.3247" y="50"/><text fill="#000000" font-family="sans-serif" font-size="14" lengthAdjust="spacing" textLength="60.8467" x="350.3247" y="70.5352">FrontEnd</text><rect fill="#E2E2F0" height="30.4883" rx="2.5" ry="2.5" style="stroke:#181818;stroke-width:0.5;" width="74.8467" x="343.3247" y="395.5938"/><text fill="#000000" font-family="sans-serif" font-size="14" lengthAdjust="spacing" textLength="60.8467" x="350.3247" y="416.1289">FrontEnd</text><rect fill="#E2E2F0" height="30.4883" rx="2.5" ry="2.5" style="stroke:#181818;stroke-width:0.5;" width="70.2256" x="581.8218" y="50"/><text fill="#000000" font-family="sans-serif" font-size="14" lengthAdjust="spacing" textLength="56.2256" x="588.8218" y="70.5352">BackEnd</text><rect fill="#E2E2F0" height="30.4883" rx="2.5" ry="2.5" style="stroke:#181818;stroke-width:0.5;" width="70.2256" x="581.8218" y="395.5938"/><text fill="#000000" font-family="sans-serif" font-size="14" lengthAdjust="spacing" textLength="56.2256" x="588.8218" y="416.1289">BackEnd</text><rect fill="#FFFFFF" height="287.1055" style="stroke:#181818;stroke-width:1.0;" width="10" x="40.1382" y="91.4883"/><rect fill="#FFFFFF" height="29.3105" style="stroke:#181818;stroke-width:1.0;" width="10" x="375.748" y="112.7988"/><rect fill="#FFFFFF" height="29.3105" style="stroke:#181818;stroke-width:1.0;" width="10" x="375.748" y="171.4199"/><rect fill="#FFFFFF" height="124.2422" style="stroke:#181818;stroke-width:1.0;" width="10" x="375.748" y="254.3516"/><rect fill="#FFFFFF" height="29.3105" style="stroke:#181818;stroke-width:1.0;" width="10" x="611.9346" y="283.6621"/><polygon fill="#181818" points="363.748,108.7988,373.748,112.7988,363.748,116.7988,367.748,112.7988" style="stroke:#181818;stroke-width:1.0;"/><line style="stroke:#181818;stroke-width:1.0;" x1="50.1382" x2="369.748" y1="112.7988" y2="112.7988"/><text fill="#000000" font-family="sans-serif" font-size="13" font-weight="bold" lengthAdjust="spacing" textLength="8.5757" x="57.1382" y="108.0566">1</text><text fill="#000000" font-family="sans-serif" font-size="13" lengthAdjust="spacing" textLength="186.5703" x="69.7139" y="108.0566">wants to edit a patient profile</text><polygon fill="#181818" points="61.1382,138.1094,51.1382,142.1094,61.1382,146.1094,57.1382,142.1094" style="stroke:#181818;stroke-width:1.0;"/><line style="stroke:#181818;stroke-width:1.0;stroke-dasharray:2.0,2.0;" x1="55.1382" x2="379.748" y1="142.1094" y2="142.1094"/><text fill="#000000" font-family="sans-serif" font-size="13" font-weight="bold" lengthAdjust="spacing" textLength="8.5757" x="67.1382" y="137.3672">2</text><text fill="#000000" font-family="sans-serif" font-size="13" lengthAdjust="spacing" textLength="289.0342" x="79.7139" y="137.3672">lists all patient profiles and asks to select one</text><polygon fill="#181818" points="363.748,167.4199,373.748,171.4199,363.748,175.4199,367.748,171.4199" style="stroke:#181818;stroke-width:1.0;"/><line style="stroke:#181818;stroke-width:1.0;" x1="50.1382" x2="369.748" y1="171.4199" y2="171.4199"/><text fill="#000000" font-family="sans-serif" font-size="13" font-weight="bold" lengthAdjust="spacing" textLength="8.5757" x="57.1382" y="166.6777">3</text><text fill="#000000" font-family="sans-serif" font-size="13" lengthAdjust="spacing" textLength="136.4238" x="69.7139" y="166.6777">selects patient profile</text><polygon fill="#181818" points="61.1382,196.7305,51.1382,200.7305,61.1382,204.7305,57.1382,200.7305" style="stroke:#181818;stroke-width:1.0;"/><line style="stroke:#181818;stroke-width:1.0;stroke-dasharray:2.0,2.0;" x1="55.1382" x2="379.748" y1="200.7305" y2="200.7305"/><text fill="#000000" font-family="sans-serif" font-size="13" font-weight="bold" lengthAdjust="spacing" textLength="8.5757" x="67.1382" y="195.9883">4</text><text fill="#000000" font-family="sans-serif" font-size="13" lengthAdjust="spacing" textLength="258.0259" x="79.7139" y="195.9883">shows fields of profile that can be edited</text><path d="M10,215.7305 L84.4468,215.7305 L84.4468,223.041 L74.4468,233.041 L10,233.041 L10,215.7305 " fill="#EEEEEE" style="stroke:#000000;stroke-width:1.5;"/><rect fill="none" height="134.5527" style="stroke:#000000;stroke-width:1.5;" width="652.0474" x="10" y="215.7305"/><text fill="#000000" font-family="sans-serif" font-size="13" font-weight="bold" lengthAdjust="spacing" textLength="29.4468" x="25" y="229.2988">loop</text><text fill="#000000" font-family="sans-serif" font-size="11" font-weight="bold" lengthAdjust="spacing" textLength="127.1069" x="99.4468" y="228.3652">[Selects a field to edit]</text><polygon fill="#181818" points="363.748,250.3516,373.748,254.3516,363.748,258.3516,367.748,254.3516" style="stroke:#181818;stroke-width:1.0;"/><line style="stroke:#181818;stroke-width:1.0;" x1="50.1382" x2="369.748" y1="254.3516" y2="254.3516"/><text fill="#000000" font-family="sans-serif" font-size="13" font-weight="bold" lengthAdjust="spacing" textLength="8.5757" x="57.1382" y="249.6094">5</text><text fill="#000000" font-family="sans-serif" font-size="13" lengthAdjust="spacing" textLength="177.1313" x="69.7139" y="249.6094">gives information to replace</text><polygon fill="#181818" points="599.9346,279.6621,609.9346,283.6621,599.9346,287.6621,603.9346,283.6621" style="stroke:#181818;stroke-width:1.0;"/><line style="stroke:#181818;stroke-width:1.0;" x1="385.748" x2="605.9346" y1="283.6621" y2="283.6621"/><text fill="#000000" font-family="sans-serif" font-size="13" font-weight="bold" lengthAdjust="spacing" textLength="8.5757" x="392.748" y="278.9199">6</text><text fill="#000000" font-family="sans-serif" font-size="13" lengthAdjust="spacing" textLength="93.2217" x="405.3237" y="278.9199">POST /Patients</text><polygon fill="#181818" points="396.748,308.9727,386.748,312.9727,396.748,316.9727,392.748,312.9727" style="stroke:#181818;stroke-width:1.0;"/><line style="stroke:#181818;stroke-width:1.0;stroke-dasharray:2.0,2.0;" x1="390.748" x2="615.9346" y1="312.9727" y2="312.9727"/><text fill="#000000" font-family="sans-serif" font-size="13" font-weight="bold" lengthAdjust="spacing" textLength="8.5757" x="402.748" y="308.2305">7</text><text fill="#000000" font-family="sans-serif" font-size="13" lengthAdjust="spacing" textLength="189.6108" x="415.3237" y="308.2305">success: edited patient profile</text><polygon fill="#181818" points="61.1382,338.2832,51.1382,342.2832,61.1382,346.2832,57.1382,342.2832" style="stroke:#181818;stroke-width:1.0;"/><line style="stroke:#181818;stroke-width:1.0;stroke-dasharray:2.0,2.0;" x1="55.1382" x2="374.748" y1="342.2832" y2="342.2832"/><text fill="#000000" font-family="sans-serif" font-size="13" font-weight="bold" lengthAdjust="spacing" textLength="8.5757" x="67.1382" y="337.541">8</text><text fill="#000000" font-family="sans-serif" font-size="13" lengthAdjust="spacing" textLength="128.356" x="79.7139" y="337.541">updates information</text><polygon fill="#181818" points="56.1382,374.5938,46.1382,378.5938,56.1382,382.5938,52.1382,378.5938" style="stroke:#181818;stroke-width:1.0;"/><line style="stroke:#181818;stroke-width:1.0;stroke-dasharray:2.0,2.0;" x1="50.1382" x2="379.748" y1="378.5938" y2="378.5938"/><text fill="#000000" font-family="sans-serif" font-size="13" font-weight="bold" lengthAdjust="spacing" textLength="8.5757" x="62.1382" y="373.8516">9</text><text fill="#000000" font-family="sans-serif" font-size="13" lengthAdjust="spacing" textLength="176.3125" x="74.7139" y="373.8516">shows edited patient profile</text><!--SRC=[XPB1ReCm38RlF8NLEzgzcYeDYLvNZUu1tCIiKKCI9Q5z_PcaC2ZTbWE2sF_dtpROHslwxaI-A514ws7p9ZjbDe01FflweoWS-gY4ScWYRFRUcbWRcUBxUXciK5p6M5KdeBfYf3i8-0nlKEvOkeKRYm942oHL10I7KH5pdBUjqfJo9mJNIXV3sTTGCYEnjW1Q1UQWrey4lZIIpLnIbK2QH0HhCbdId3sY7qmoFil2l-uczTfXEDjRW5QHbW5iEo8WdZ62G0CdIZCW-OkpzD3MEcZkRZ3ZnkcjRN-fA_UlJ6jznywj6L8zEOtYkVUL_ntla467z-O8BuVSVPWo9ddr8ryWXbFbCUGvza9G2Djxfq_d-T3z39rwUotBpEgTvFYYlPH9HXRBBKwIl8C_QY-dFljAF-yt]--></g></svg>